<svg xmlns="http://www.w3.org/2000/svg">
<defs>
<font id="UTMImpact" horiz-adv-x="1047" >
  <font-face 
    font-family="UTM Impact"
    font-weight="400"
    font-stretch="normal"
    units-per-em="2048"
    panose-1="2 4 6 3 5 5 6 2 2 4"
    ascent="1638"
    descent="-410"
    x-height="1327"
    cap-height="1619"
    bbox="-40 -456 4942 2278"
    underline-thickness="109"
    underline-position="-143"
    unicode-range="U+0020-2026"
  />
<missing-glyph horiz-adv-x="5040" 
d="M3351 2045h10q37 -10 37 -52q0 -12 -32 -57h-28q0 24 28 54l2 10q-5 13 -10 15h-9q-8 0 -10 -19h-30q6 49 42 49zM2019 2016l29 -31q0 -16 -40 -30h-19l-59 12l-11 -12l-28 25q11 29 43 29h11l42 -11h2q10 0 30 18zM468 1980h142v-60h-94v-75h89v-59h-89v-129l-5 -5h-49
v323zM1155 1980h43l6 -5v-78h30v-52h-30v-188l-6 -5h-49v193h-25v52h25v78zM1621 1980h42l4 -5v-94h3q23 24 54 24h2q58 0 83 -71l2 -39v-143h-52v115q0 80 -42 80h-7q-43 0 -43 -86v-109h-51v323zM2200 1980h49l5 -5v-222q10 -51 45 -51q44 7 44 59v214l5 5h49v-216
q0 -85 -66 -112q-15 -8 -35 -8q-47 0 -82 55q-14 24 -14 57v224zM2435 1980h159v-60h-56v-268h-53v268h-55v55zM2621 1980h71q7 -4 83 -251h2l80 251h73v-328h-54v242h-2l-74 -242h-44q-4 0 -58 182l-19 60h-3v-242h-55v328zM3760 1980h52v-328h-45l-5 5v11l3 2l-3 14
q-29 -40 -78 -40q-67 0 -100 91l-5 39v3q0 94 92 125l23 3q35 0 63 -32h3v107zM2057 1928h36l4 -6v-49h-45v-221h-48v23q-23 -31 -59 -31q-89 14 -89 97v156h51v-104q0 -79 26 -86l18 -5h6q26 0 39 36l3 26v133h53v25zM3476 1928v-55h-31v-221h-47v25h-2q-15 -33 -57 -33
q-68 0 -86 78l-3 29v146h52v-120q0 -50 19 -68l21 -7h9q42 0 42 69v126h27q4 0 4 28l3 3h49zM758 1905q68 0 103 -77q9 -18 12 -54q0 -88 -90 -127l-32 -3q-63 0 -101 73q-12 22 -12 52v10q0 94 101 126h19zM1011 1905h3q74 0 83 -101v-152h-51v119q0 76 -42 76h-5
q-44 0 -44 -76v-119h-52v245h46v-21q30 29 62 29zM1466 1905h7q72 0 105 -89h-60q-16 31 -42 31h-17q-53 -14 -53 -61l-3 -15q12 -69 61 -69h9q22 0 47 27h40l2 3h3l2 -3l2 3l3 -3l2 3l2 -7q-33 -81 -110 -81q-76 0 -110 94l-4 36v3q0 85 77 120q15 8 37 8zM3141 1905h2

<glyph glyph-name=".notdef" horiz-adv-x="5040" 
d="M3351 2045h10q37 -10 37 -52q0 -12 -32 -57h-28q0 24 28 54l2 10q-5 13 -10 15h-9q-8 0 -10 -19h-30q6 49 42 49zM2019 2016l29 -31q0 -16 -40 -30h-19l-59 12l-11 -12l-28 25q11 29 43 29h11l42 -11h2q10 0 30 18zM468 1980h142v-60h-94v-75h89v-59h-89v-129l-5 -5h-49
v323zM1155 1980h43l6 -5v-78h30v-52h-30v-188l-6 -5h-49v193h-25v52h25v78zM1621 1980h42l4 -5v-94h3q23 24 54 24h2q58 0 83 -71l2 -39v-143h-52v115q0 80 -42 80h-7q-43 0 -43 -86v-109h-51v323zM2200 1980h49l5 -5v-222q10 -51 45 -51q44 7 44 59v214l5 5h49v-216
q0 -85 -66 -112q-15 -8 -35 -8q-47 0 -82 55q-14 24 -14 57v224zM2435 1980h159v-60h-56v-268h-53v268h-55v55zM2621 1980h71q7 -4 83 -251h2l80 251h73v-328h-54v242h-2l-74 -242h-44q-4 0 -58 182l-19 60h-3v-242h-55v328zM3760 1980h52v-328h-45l-5 5v11l3 2l-3 14
q-29 -40 -78 -40q-67 0 -100 91l-5 39v3q0 94 92 125l23 3q35 0 63 -32h3v107zM2057 1928h36l4 -6v-49h-45v-221h-48v23q-23 -31 -59 -31q-89 14 -89 97v156h51v-104q0 -79 26 -86l18 -5h6q26 0 39 36l3 26v133h53v25zM3476 1928v-55h-31v-221h-47v25h-2q-15 -33 -57 -33
q-68 0 -86 78l-3 29v146h52v-120q0 -50 19 -68l21 -7h9q42 0 42 69v126h27q4 0 4 28l3 3h49zM758 1905q68 0 103 -77q9 -18 12 -54q0 -88 -90 -127l-32 -3q-63 0 -101 73q-12 22 -12 52v10q0 94 101 126h19zM1011 1905h3q74 0 83 -101v-152h-51v119q0 76 -42 76h-5
q-44 0 -44 -76v-119h-52v245h46v-21q30 29 62 29zM1466 1905h7q72 0 105 -89h-60q-16 31 -42 31h-17q-53 -14 -53 -61l-3 -15q12 -69 61 -69h9q22 0 47 27h40l2 3h3l2 -3l2 3l3 -3l2 3l2 -7q-33 -81 -110 -81q-76 0 -110 94l-4 36v3q0 85 77 120q15 8 37 8zM3141 1905h2
q49 0 70 -60v-14h-52q0 16 -16 16h-4q-14 0 -19 -13v-13q0 -9 68 -35q30 -19 30 -59q0 -58 -61 -80l-23 -3q-76 12 -76 83h54q0 -20 27 -25h4q19 0 24 23q0 22 -68 44q-34 27 -34 59q0 66 74 77zM4203 1905q55 0 77 -63q7 -18 7 -65v-125h-52v112q0 83 -40 83h-11
q-33 0 -40 -54v-141h-52v5h-2l2 2v238h47v-21q25 29 64 29zM4432 1905h5q40 0 69 -40v18l-3 3l3 11h47v-208q0 -97 -85 -132l-33 -4h-7q-70 0 -104 80h59q24 -22 45 -23h13q22 0 43 22q15 13 22 52h-3q-32 -40 -73 -40q-57 0 -96 70q-10 18 -14 63q0 88 87 125zM3851 1897
h53v-136q6 -59 40 -59h7q46 0 46 93v102h51v-245h-47l-3 10h3l-3 3v5l3 2v3h-4q0 -23 -57 -31h-3q-59 0 -84 75l-2 85v93zM690 1771q10 -69 63 -69h7q59 14 59 65v15q-13 65 -59 65h-5q-58 0 -65 -76zM3630 1774q13 -72 61 -72h5q58 0 66 75q0 49 -51 70h-22q-37 0 -56 -57z
M4374 1774q8 -72 65 -72h5q59 12 59 72q0 61 -59 73h-14q-56 -16 -56 -62v-11zM3928 1620h52v-57h-52v57zM1054 1402q43 -11 43 -49v-4q0 -17 -32 -60h-28q0 25 31 57v7q0 12 -7 15h-12q-10 -4 -10 -19h-28v6q0 32 33 44zM3349 1339q92 0 138 -99h-60q-37 42 -80 42
q-55 0 -87 -68q-10 -22 -10 -47q0 -78 81 -110l18 -1q36 0 75 39h61q-44 -97 -138 -97q-93 0 -141 112q-10 31 -10 62q0 97 90 152q29 15 63 15zM3664 1339q57 0 103 -47q46 -51 46 -115v-20q0 -89 -91 -146q-33 -13 -63 -13q-89 0 -138 101q-13 33 -13 60v18q0 98 98 151
q29 11 58 11zM2261 1337h2l47 -11h3q11 0 26 11l18 -36q-18 -19 -35 -19h-3l-54 10l-20 -7l-20 36q18 16 36 16zM716 1334h19q118 0 129 -26q25 -26 25 -62q-10 -57 -30 -57v-6q47 -23 47 -66v-18q0 -63 -69 -88l-54 -5h-67v328zM2550 1334h53v-217q6 -61 45 -61q29 0 44 39
l3 30v203l4 6h45l5 -6v-171q0 -118 -40 -133q-24 -26 -64 -26q-55 0 -91 76l-4 54v206zM2805 1334h59q4 0 122 -237h4v237h50l4 -6v-322h-58q-29 48 -125 238h-3v-238h-53v328zM3101 1334h54v-328h-54v328zM3859 1334h8q155 0 174 -40q23 -11 47 -75l4 -36v-11l3 -2
q0 -94 -82 -149q-35 -15 -99 -15h-55v328zM4141 1334h153v-60h-103v-75h101v-57h-101v-74l4 -5h99v-57h-157v322zM3563 1175v-10q0 -76 79 -108l19 -1q68 0 96 86l3 20v15q0 61 -60 94q-12 8 -39 11q-66 0 -96 -83zM770 1274v-67h9q54 0 54 28l3 14q-11 25 -29 25h-37z
M3912 1274v-206l2 -3v-2q104 0 122 76l2 15v29q0 34 -32 68q-25 23 -78 23h-16zM1041 1259h5q38 0 71 -40v32h49v-245h-49v32q-36 -40 -80 -40q-75 0 -101 97l-5 36q0 89 85 125zM1314 1259h3q74 0 83 -102v-151h-51v128q0 67 -42 67h-10q-34 0 -39 -62v-133h-52v245h47v-21
q28 29 61 29zM1543 1259h5q45 0 71 -40v32h47v-219q0 -95 -104 -126h-16q-74 0 -108 82h59q26 -25 44 -25h14q52 0 64 77q-33 -42 -76 -42q-60 0 -101 81l-7 44v16q0 79 85 117zM1912 1259h2q43 0 61 -37h2q32 37 69 37h4q57 0 79 -55q8 -25 8 -45v-153h-52v138q0 44 -23 55
l-12 2h-15q-32 0 -36 -65v-130h-52v136q0 59 -43 59h-8q-32 0 -36 -57v-138h-54v245h50v-21h2q6 24 54 29zM2282 1259q47 0 75 -42v34h47v-245h-47v32q-36 -40 -78 -40q-74 0 -102 92l-6 41q0 90 85 125zM985 1117q0 -48 61 -61h4q45 0 62 46l3 15v22q-12 62 -57 62h-14
q-41 0 -59 -57v-27zM1487 1128q0 -48 43 -68l18 -4h5q47 0 63 57v23q-11 65 -58 65h-12q-50 0 -59 -73zM2225 1131v-14q15 -61 57 -61h14q58 12 58 64v11q0 45 -37 65l-18 5h-10q-64 -8 -64 -70zM770 1150v-82q0 -5 7 -5q77 0 77 45q0 34 -47 42h-37zM2966 753l24 -28
l-51 -55q-18 12 -27 26zM1524 727l85 -54q0 -15 -21 -42l-87 54q18 41 23 42zM2850 693h38l55 -60h-54l-21 26l-23 -26h-54q54 60 59 60zM3422 693h40l56 -60h-54l-24 26h-1q0 -5 -19 -26h-54zM622 685h52q8 -4 47 -137l34 -110q9 8 34 100l48 147h54v-2l-112 -326h-44z
M1159 685h51v-54h-51v54zM1354 685h46l6 -5v-323h-52v328zM2317 685h45l4 -5v-78h31v-52h-31v-193h-53v193h-26v52h26v78zM2425 685h52v-98h2q23 23 54 23h3q57 0 81 -71l3 -38v-144h-52v115q0 81 -39 81h-10q-42 0 -42 -87v-109h-52v328zM2664 685h52v-54h-52v54zM3028 685
h44l6 -5v-78h29v-52h-29v-193h-54v193h-27v52h27v78zM3234 685h52v-328h-52v328zM3957 685h52v-328h-52v328zM4316 685h51v-54h-51v54zM1555 610h5q83 0 110 -102l3 -23v-11q0 -83 -85 -120l-35 -5q-76 0 -111 97l-4 32q0 97 93 130zM1811 610h4q53 0 78 -60q7 -25 7 -81
v-112h-54v146q-7 50 -37 50h-10q-38 0 -42 -57v-139h-54v245h49v-21q26 29 59 29zM2046 610h4q45 0 63 -39h3v31h49v-206q0 -102 -89 -135l-28 -3h-5q-73 0 -106 81h52l37 -20l15 -3h14q50 0 61 72q-33 -39 -73 -39q-62 0 -98 76q-11 23 -12 60q0 85 86 123zM2866 610h2
q82 0 111 -104l2 -25l-2 -27h-172q15 -45 45 -45l14 -3q29 0 49 22h57v-3q-35 -76 -108 -76q-77 0 -111 97l-1 28v8q0 49 32 89q34 39 82 39zM3429 610h5q41 0 70 -39h2v31h47v-245h-47v31h-2q-35 -39 -77 -39q-71 0 -101 89l-5 36v14q0 86 84 120zM3711 610h7
q88 0 107 -128l-2 -1v-15q0 -65 -66 -106q-21 -11 -46 -11q-34 0 -64 32v-99l-5 -5h-49v325h49v-28q31 36 69 36zM4151 610q44 0 75 -39v31h49v-245h-49v31q-35 -39 -77 -39q-92 0 -108 132q0 84 73 121q15 8 37 8zM922 602h50v-136q3 -60 42 -60h5q44 0 44 87v109h52v-245
h-47v24h-5q0 -23 -56 -32h-3q-55 0 -82 68q-4 35 -4 99v81zM1159 602h51v-245h-51v245zM2664 602h52v-245h-52v245zM4316 602h51v-245h-51v245zM1492 488v-16q13 -66 59 -66h4q59 0 66 76q-13 71 -59 71h-11q-59 -16 -59 -65zM1987 472q15 -66 59 -66h11q48 0 59 75v1
q-13 71 -59 71h-14q-39 0 -56 -57v-24zM2805 506h122v2q-16 45 -59 45h-7q-35 0 -56 -47zM3373 474q13 -68 61 -68h5q52 0 65 63v12q-10 72 -57 72h-16q-56 -14 -56 -63zM3642 478q12 -72 61 -72h3q50 0 65 60v22q0 43 -49 65h-22q-47 0 -58 -72v-3zM4095 472q10 -66 66 -66
q43 0 61 48l2 15v16q0 54 -52 68h-18q-42 0 -59 -60v-21zM3416 321h51v-52h-51v52zM4137 321h51v-52h-51v52zM2733 133h4q35 0 43 -50v-2q0 -16 -24 -41l-10 -17h-28q0 25 28 56l3 2v2q-3 19 -9 19h-10q-8 0 -9 -19h-30q6 50 42 50zM1546 116l52 -60l-26 -19l-52 52zM352 79
h4q75 -48 85 -60l-20 -37q-88 49 -88 58zM3490 79l86 -58l-18 -39q-10 0 -91 55q15 36 23 42zM4578 76l19 -42l-91 -52l-20 39l92 58v-3zM1204 53h51v-19l5 -5h14v-36h-14l-5 -5v-279h-46v31q-34 -40 -81 -40q-72 0 -102 105l-3 26q0 102 101 131h14q33 0 66 -33v59l-6 5
h-43v36h49v24zM1480 45h40l56 -61h-53l-23 27l-23 -27h-53zM2641 45h33q12 0 63 -61h-54l-23 27q-19 -21 -19 -27h-58v4zM49 37h160v-60h-56v-268h-50l-4 5v245l2 3v2l-2 2l2 3l-2 2l2 3l-2 3h-54v54zM699 37h47v-73l2 -2l-2 -3v-3l2 -2l-2 -3v-3l2 -2v-2l-2 -3l2 -3h3
q17 24 51 24h3q53 0 77 -58q7 -17 7 -42v-153h-52v127q0 68 -40 68h-8q-43 0 -43 -86v-109h-52v322zM1297 37h47l5 -6v-49h-52v55zM1987 37h52v-198l70 115h62l-78 -118l90 -125v-2h-70q-10 22 -74 115v-115h-52v328zM2271 37v-99q24 24 53 24q57 0 80 -56q10 -19 10 -77
v-120h-54v133q0 62 -41 62h-11q-31 0 -37 -55v-140h-53v314l-1 3v3l1 2l-1 3l1 3h53zM2458 37h51v-55h-51v55zM3148 37h51v-108q27 33 68 33h3q75 0 105 -94l5 -37q0 -75 -64 -120q-30 -11 -49 -11q-41 0 -72 40v-31h-47v328zM4275 37h52v-99h2q23 24 54 24h3q60 0 82 -74
l2 -41v-138h-52v111q0 82 -32 82l-10 2h-12q-37 0 -37 -80v-115h-52v328zM329 -38h3v-58h-5q-42 0 -42 -57v-138h-53v245h47v-21q18 29 50 29zM564 -38q71 0 86 -87v-166h-51v136q-6 59 -41 59h-6q-45 0 -45 -84v-111h-52v245h50v-21q25 29 59 29zM1504 -38q72 0 105 -94
l5 -39q-2 -24 -7 -24h-169q17 -47 62 -47q24 0 48 21h57q-33 -79 -108 -79q-82 0 -113 105v37q0 81 89 117zM2657 -38h5q77 0 107 -97l3 -26v-21l-3 -13h-170q18 -47 53 -47h12q21 0 42 21h59q-34 -79 -105 -79q-84 0 -115 102l-2 29q0 93 91 128zM2915 -38h4q54 0 78 -60
q7 -25 7 -82v-111h-54v138q0 48 -35 57h-11q-38 0 -43 -57v-138h-54v245h50v-21q25 29 58 29zM3508 -38h6q40 0 70 -40h2v32h47v-245h-47v31h-2q-34 -40 -78 -40q-71 0 -101 90l-4 37v12q0 82 77 117q11 6 30 6zM3781 -38h4q62 0 82 -78l3 -84v-91h-54v138q0 48 -38 57h-9
q-38 0 -42 -52v-143h-54v245h49v-21q26 29 59 29zM4133 -38h1q74 0 104 -93l4 -40q0 -88 -84 -126l-25 -3q-41 0 -68 34v-106h-52v326h47v-29q30 37 73 37zM4714 -38h5q34 0 63 -37q27 37 69 37h6q56 0 79 -66l6 -51v-136h-52v122q0 73 -39 73h-7q-35 0 -41 -50v-140l-5 -5
h-48v140q0 42 -31 55h-17q-40 0 -40 -77v-118h-51v245h47v-21q22 29 56 29zM359 -46h49l5 -6v-234l-5 -5h-49v245zM1297 -46h52v-245h-52v245zM1649 -46h52v-136q4 -60 43 -60h4q44 0 44 81v115h52v-245h-47v24h-5q-12 -33 -59 -33q-52 0 -79 63q-5 12 -5 34v157zM2458 -46
h51v-245h-51v245zM4515 -46h51v-245h-51v245zM1077 -169q0 -53 51 -73h12q54 0 66 66v10q0 53 -54 70h-17q-38 0 -58 -57v-16zM1438 -143h122q-18 47 -53 47h-7q-43 0 -62 -44v-3zM2599 -143h122q-21 47 -54 47h-7q-46 0 -61 -47zM3196 -158v-11q10 -73 61 -73h5q64 8 64 71
v5q0 45 -38 65l-18 5h-14q-60 -14 -60 -62zM3452 -173q14 -69 62 -69h11q41 0 59 60v13q-8 73 -56 73h-17q-47 0 -59 -73v-4zM4062 -158v-22q0 -47 59 -62h9q50 0 61 76q-13 70 -58 70h-15q-56 -17 -56 -62z" />
    <glyph glyph-name=".null" horiz-adv-x="0" 
 />
    <glyph glyph-name="nonmarkingreturn" horiz-adv-x="571" 
 />
    <glyph glyph-name="space" unicode=" " horiz-adv-x="508" 
 />
    <glyph glyph-name="exclam" unicode="!" horiz-adv-x="553" 
d="M516 1619l-66 -1219h-312l-66 1219h444zM483 324v-324h-378v324h378z" />
    <glyph glyph-name="quotedbl" unicode="&#x22;" horiz-adv-x="757" 
d="M89 1098l-53 273v248h306v-248l-46 -273h-207zM468 1098l-53 273v248h306v-248l-47 -273h-206z" />
    <glyph glyph-name="numbersign" unicode="#" horiz-adv-x="1283" 
d="M36 1061h308l84 383h189l-84 -383h355l82 383h189l-82 -383h170v-190h-206l-63 -302h269v-189h-305l-82 -380h-190l83 380h-359l-78 -380h-191l81 380h-170v189h209l63 302h-272v190zM497 871l-63 -301h356l62 301h-355z" />
    <glyph glyph-name="dollar" unicode="$" horiz-adv-x="1121" 
d="M1019 1147h-404v67q0 107 -14 140t-60 33q-37 0 -55.5 -28.5t-18.5 -85.5q0 -95 38 -133q37 -38 218 -148q154 -93 210 -142.5t94.5 -140t38.5 -225.5q0 -216 -104 -339t-312 -152v-152h-186v157q-162 16 -283 124.5t-121 378.5v79h404v-99q0 -163 12.5 -202.5
t60.5 -39.5q41 0 61 27.5t20 81.5q0 136 -19 194.5t-130 127.5q-185 116 -251.5 170.5t-115 153.5t-48.5 224q0 181 102.5 284t307.5 127v129h186v-129q187 -24 280 -125.5t93 -280.5q0 -25 -4 -76z" />
    <glyph glyph-name="percent" unicode="%" horiz-adv-x="1419" 
d="M1103 1650l-633 -1681h-154l635 1681h152zM632 1343v-278q0 -109 -20.5 -163.5t-88 -95t-178.5 -40.5q-128 0 -195 38.5t-90.5 92.5t-23.5 155v291q0 120 24.5 177.5t94.5 93.5t173 36q114 0 185 -39.5t95 -95.5t24 -172zM376 1414q0 64 -6.5 79t-35.5 15q-27 0 -35 -16
t-8 -78v-408q0 -70 7 -84t37 -14q26 0 33.5 16t7.5 75v415zM1383 561v-279q0 -108 -20.5 -163t-88 -95.5t-178.5 -40.5q-127 0 -194.5 39t-91 93t-23.5 154v292q0 119 24.5 176.5t94.5 94t173 36.5q115 0 186 -40t94.5 -96t23.5 -171zM1127 631q0 64 -6.5 79.5t-35.5 15.5
q-27 0 -34.5 -16t-7.5 -79v-408q0 -69 7 -83t36 -14q27 0 34 15.5t7 75.5v414z" />
    <glyph glyph-name="ampersand" unicode="&#x26;" horiz-adv-x="1180" 
d="M1152 615v-273l-114 -72l142 -270h-373l-49 90q-188 -124 -356 -124q-176 0 -271 117t-95 282q0 132 56 207t168 122q-160 115 -160 311q0 169 114 272t314 103q180 0 283.5 -101t103.5 -257q0 -164 -126 -291l143 -258zM529 899q68 89 68 170q0 35 -20 64t-56 29
q-33 0 -50 -22t-17 -67q0 -94 75 -174zM620 273l-131 218q-75 -68 -75 -147q0 -57 23.5 -85.5t69.5 -28.5q49 0 113 43z" />
    <glyph glyph-name="quotesingle" unicode="'" horiz-adv-x="379" 
d="M89 1098l-53 273v248h306v-248l-46 -273h-207z" />
    <glyph glyph-name="parenleft" unicode="(" horiz-adv-x="642" 
d="M605 1619v-211q-83 0 -107.5 -7t-36 -32.5t-11.5 -144.5v-829q0 -111 9 -138.5t33.5 -36.5t112.5 -9v-211h-127q-176 0 -258.5 32.5t-109 95.5t-26.5 268v827q0 204 26 268t111 96t257 32h127z" />
    <glyph glyph-name="parenright" unicode=")" horiz-adv-x="642" 
d="M36 1619h127q172 0 257 -32t111 -96t26 -268v-827q0 -205 -26 -268t-109 -95.5t-259 -32.5h-127v211q89 0 113 9t33.5 36.5t9.5 138.5v829q0 119 -12 144.5t-36.5 32.5t-107.5 7v211z" />
    <glyph glyph-name="asterisk" unicode="*" horiz-adv-x="575" 
d="M352 1619v-161l148 51l45 -118l-148 -62l93 -132l-100 -74l-101 133l-99 -133l-105 74l94 137l-149 57l43 118l153 -51v161h126z" />
    <glyph glyph-name="plus" unicode="+" horiz-adv-x="1092" 
d="M64 930h359v360h244v-360h361v-244h-361v-358h-244v358h-359v244z" />
    <glyph glyph-name="comma" unicode="," horiz-adv-x="344" 
d="M307 317v-145q0 -114 -27 -187t-93.5 -124t-150.5 -68v116q60 34 68 91h-68v317h271z" />
    <glyph glyph-name="hyphen" unicode="-" horiz-adv-x="603" 
d="M567 803v-279h-531v279h531z" />
    <glyph glyph-name="hyphen" unicode="&#x2010;" horiz-adv-x="603" 
d="M567 803v-279h-531v279h531z" />
    <glyph glyph-name="period" unicode="." horiz-adv-x="378" 
d="M341 330v-330h-305v330h305z" />
    <glyph glyph-name="slash" unicode="/" horiz-adv-x="810" 
d="M798 1650l-480 -1681h-306l483 1681h303z" />
    <glyph glyph-name="zero" unicode="0" horiz-adv-x="1098" 
d="M1025 1071v-540q0 -184 -20 -268t-83 -157t-152 -105t-199 -32q-145 0 -241 33.5t-153 104.5t-81 149.5t-24 249.5v565q0 223 38.5 334t153 178t277.5 67q133 0 238 -46.5t157 -113.5t70.5 -151t18.5 -268zM621 1207q0 129 -12.5 161.5t-58.5 32.5q-45 0 -59.5 -34.5
t-14.5 -159.5v-790q0 -141 13.5 -170t58.5 -29t59 34t14 153v802z" />
    <glyph glyph-name="one" unicode="1" horiz-adv-x="780" 
d="M695 1619v-1619h-404v868q0 188 -9 226t-49.5 57.5t-180.5 19.5h-40v189q293 63 445 259h238z" />
    <glyph glyph-name="two" unicode="2" horiz-adv-x="1028" 
d="M943 276v-276h-889v231q395 646 469.5 799.5t74.5 239.5q0 66 -22.5 98.5t-68.5 32.5t-68.5 -36t-22.5 -143v-154h-362v59q0 136 14 214.5t69 154.5t143 115t211 39q241 0 364.5 -119.5t123.5 -302.5q0 -139 -69.5 -294t-409.5 -658h443z" />
    <glyph glyph-name="three" unicode="3" horiz-adv-x="1086" 
d="M831 917q92 -31 137 -101.5t45 -330.5q0 -193 -44 -299.5t-152 -162t-277 -55.5q-192 0 -301.5 64.5t-144 158t-34.5 324.5v128h404v-263q0 -105 12.5 -133.5t55.5 -28.5q47 0 62 36t15 188v112q0 93 -21 136t-62 56.5t-159 15.5v235q144 0 178 11t49 48t15 116v90
q0 85 -17.5 112t-54.5 27q-42 0 -57.5 -28.5t-15.5 -121.5v-133h-404v138q0 232 106 313.5t337 81.5q289 0 392 -113t103 -314q0 -136 -37 -196.5t-130 -110.5z" />
    <glyph glyph-name="four" unicode="4" horiz-adv-x="1023" 
d="M896 1619v-1058h115v-276h-115v-285h-404v285h-480v276l349 1058h535zM492 561v689l-178 -689h178z" />
    <glyph glyph-name="five" unicode="5" horiz-adv-x="1099" 
d="M954 1619v-259h-501v-275q94 111 242 111q167 0 252.5 -93.5t85.5 -359.5v-231q0 -172 -16.5 -252.5t-70.5 -149t-150.5 -105t-235.5 -36.5q-156 0 -275 54.5t-169 162.5t-50 334v88h404v-101q0 -157 11 -223t76 -66q30 0 48.5 19t20 41t3.5 191v321q0 91 -19 124t-63 33
q-28 0 -47 -17t-24.5 -36.5t-5.5 -90.5h-400l17 816h867z" />
    <glyph glyph-name="six" unicode="6" horiz-adv-x="1109" 
d="M1042 1189h-404q0 113 -2.5 142.5t-24 49.5t-58.5 20q-31 0 -51 -19t-23 -49t-3 -121v-258q31 65 91 97.5t148 32.5q111 0 196 -60t108 -144t23 -227v-129q0 -170 -13 -253t-69.5 -153.5t-155 -109.5t-229.5 -39q-163 0 -267 45t-160.5 129.5t-66 177.5t-9.5 361v224
q0 289 8.5 386.5t69.5 184.5t166.5 130.5t243.5 43.5q170 0 279 -55t156 -155t47 -252zM638 684q0 86 -19 118t-62 32q-42 0 -61.5 -30.5t-19.5 -119.5v-293q0 -107 18.5 -140t61.5 -33q26 0 54 25.5t28 137.5v303z" />
    <glyph glyph-name="seven" unicode="7" horiz-adv-x="802" 
d="M784 1619v-353l-258 -1266h-402l287 1328h-399v291h772z" />
    <glyph glyph-name="eight" unicode="8" horiz-adv-x="1095" 
d="M843 918q89 -36 137 -107.5t48 -340.5q0 -196 -38 -289t-148 -152.5t-295 -59.5q-180 0 -285 57t-150.5 151t-45.5 313q0 147 22.5 255t141.5 173q-75 36 -112.5 114.5t-37.5 199.5q0 209 116 313.5t347 104.5q267 0 369 -111t102 -317q0 -131 -33.5 -189t-137.5 -115z
M616 1266q0 82 -14.5 108.5t-55.5 26.5q-40 0 -54 -28.5t-14 -106.5v-123q0 -73 16 -101t54 -28q40 0 54 27.5t14 113.5v111zM624 593q0 93 -19 123.5t-60 30.5q-40 0 -57.5 -29.5t-17.5 -124.5v-210q0 -105 19.5 -135t61.5 -30q43 0 58 30.5t15 137.5v207z" />
    <glyph glyph-name="nine" unicode="9" horiz-adv-x="1109" 
d="M72 430h404q0 -113 3 -142.5t24.5 -49.5t58.5 -20q31 0 51 19t22.5 49t2.5 121v258q-30 -65 -90 -97.5t-149 -32.5q-111 0 -196 60t-108 144t-23 227v129q0 170 13.5 253t69.5 153.5t155 109.5t230 39q162 0 266 -45t161 -129.5t66 -177.5t9 -360v-225q0 -289 -8 -386.5
t-69.5 -184.5t-166.5 -130.5t-243 -43.5q-171 0 -279.5 55t-156 155t-47.5 252zM476 935q0 -102 26.5 -126t54.5 -24q42 0 61.5 30.5t19.5 119.5v293q0 107 -18.5 140t-61.5 33q-26 0 -54 -25.5t-28 -137.5v-303z" />
    <glyph glyph-name="colon" unicode=":" horiz-adv-x="414" 
d="M377 1054v-329h-305v329h305zM377 330v-330h-305v330h305z" />
    <glyph glyph-name="semicolon" unicode=";" horiz-adv-x="414" 
d="M377 1054v-329h-305v329h305zM360 317v-145q0 -114 -27 -187t-93.5 -124t-150.5 -68v116q60 34 68 91h-68v317h271z" />
    <glyph glyph-name="less" unicode="&#x3c;" horiz-adv-x="1092" 
d="M1027 324l-962 401v203l962 402v-264l-594 -239l594 -238v-265z" />
    <glyph glyph-name="equal" unicode="=" horiz-adv-x="1092" 
d="M65 1122h962v-244h-962v244zM65 740h962v-244h-962v244z" />
    <glyph glyph-name="greater" unicode="&#x3e;" horiz-adv-x="1092" 
d="M65 1330l962 -400v-204l-962 -402v264l594 239l-594 238v265z" />
    <glyph glyph-name="question" unicode="?" horiz-adv-x="1075" 
d="M488 1097h-404q2 213 36 311t147.5 171.5t289.5 73.5q127 0 222 -40t151 -111.5t82 -154.5t26 -260v-198q0 -135 -25 -217t-109 -144t-197 -62q-147 0 -219 115v-174h-377v445h368q2 -92 66 -92q50 0 63.5 40.5t13.5 198.5v269q0 89 -12.5 119.5t-49.5 30.5
q-46 0 -59 -40.5t-13 -182.5v-98zM488 324v-324h-377v324h377z" />
    <glyph glyph-name="at" unicode="@" horiz-adv-x="1587" 
d="M1193 1308l-127 -792q-4 -26 -4 -35q0 -39 37 -39q60 0 130.5 57.5t123 170.5t52.5 264q0 255 -153.5 412.5t-402.5 157.5q-289 0 -477 -199.5t-188 -532.5q0 -321 183.5 -509.5t467.5 -188.5q140 0 266 47t239 140h210q-130 -166 -322.5 -251t-391.5 -85
q-341 0 -570.5 230.5t-229.5 607.5q0 374 214 632t595 258q227 0 371 -87.5t240.5 -244t96.5 -387.5q0 -307 -171 -483.5t-343 -176.5q-129 0 -157 116q-68 -66 -117.5 -91.5t-118.5 -25.5q-149 0 -239 116t-90 310q0 250 125.5 444.5t305.5 194.5q72 0 130 -36t101 -108
l16 114h198zM525 642q0 -94 40 -159t107 -65q65 0 114.5 51t91.5 209.5t42 302.5q0 90 -38 145.5t-103 55.5q-122 0 -188 -171.5t-66 -368.5z" />
    <glyph glyph-name="A" unicode="A" horiz-adv-x="1040" 
d="M811 1619l241 -1619h-431l-21 291h-151l-25 -291h-436l214 1619h609zM588 578q-32 275 -64 679q-64 -464 -80 -679h144z" />
    <glyph glyph-name="B" unicode="B" horiz-adv-x="1131" 
d="M84 1619h420q199 0 301.5 -31t165.5 -125.5t63 -304.5q0 -142 -44.5 -198t-175.5 -86q146 -33 198 -109.5t52 -234.5v-150q0 -164 -37.5 -243t-119.5 -108t-336 -29h-487v1619zM505 1342v-360q27 1 42 1q62 0 79 30.5t17 174.5q0 76 -14 106.5t-36.5 38.5t-87.5 9z
M505 730v-453q89 3 113.5 28t24.5 123v151q0 104 -22 126t-116 25z" />
    <glyph glyph-name="C" unicode="C" horiz-adv-x="1134" 
d="M1067 913h-421v282q0 123 -13.5 153.5t-59.5 30.5q-52 0 -66 -37t-14 -160v-752q0 -118 14 -154t63 -36q47 0 61.5 36t14.5 169v203h421v-63q0 -251 -35.5 -356t-157 -184t-299.5 -79q-185 0 -305 67t-159 185.5t-39 356.5v473q0 175 12 262.5t71.5 168.5t165 127.5
t242.5 46.5q186 0 307 -72t159 -179.5t38 -334.5v-154z" />
    <glyph glyph-name="D" unicode="D" horiz-adv-x="1132" 
d="M84 1619h315q305 0 412.5 -28t163.5 -92t70 -142.5t14 -308.5v-567q0 -218 -20.5 -291.5t-71.5 -115t-126 -58t-226 -16.5h-531v1619zM505 1342v-1065q91 0 112 36.5t21 198.5v629q0 110 -7 141t-32 45.5t-94 14.5z" />
    <glyph glyph-name="E" unicode="E" horiz-adv-x="851" 
d="M84 1619h702v-324h-281v-307h263v-308h-263v-356h309v-324h-730v1619z" />
    <glyph glyph-name="F" unicode="F" horiz-adv-x="815" 
d="M84 1619h713v-324h-292v-307h260v-308h-260v-680h-421v1619z" />
    <glyph glyph-name="G" unicode="G" horiz-adv-x="1129" 
d="M1050 1023h-421v147q0 139 -12 174t-57 35q-39 0 -53 -30t-14 -154v-777q0 -109 14 -143.5t56 -34.5q46 0 62.5 39t16.5 152v192h-85v246h493v-869h-265l-39 116q-43 -75 -108.5 -112.5t-154.5 -37.5q-106 0 -198.5 51.5t-140.5 127.5t-60 159.5t-12 250.5v481
q0 232 25 337t143.5 192.5t306.5 87.5q185 0 307 -76t159 -180.5t37 -303.5v-70z" />
    <glyph glyph-name="H" unicode="H" horiz-adv-x="1137" 
d="M1052 1619v-1619h-421v680h-126v-680h-421v1619h421v-579h126v579h421z" />
    <glyph glyph-name="I" unicode="I" horiz-adv-x="590" 
d="M505 1619v-1619h-421v1619h421z" />
    <glyph glyph-name="J" unicode="J" horiz-adv-x="678" 
d="M599 1619v-1082q0 -243 -5 -312.5t-45.5 -125.5t-110 -77.5t-209.5 -21.5h-211v283q38 -3 55 -3q45 0 71 22t30 54t4 124v1139h421z" />
    <glyph glyph-name="K" unicode="K" horiz-adv-x="1099" 
d="M1087 1619l-241 -731l264 -888h-435l-170 694v-694h-421v1619h421v-629l187 629h395z" />
    <glyph glyph-name="L" unicode="L" horiz-adv-x="779" 
d="M505 1619v-1295h256v-324h-677v1619h421z" />
    <glyph glyph-name="M" unicode="M" horiz-adv-x="1468" 
d="M1383 1619v-1619h-368v1093l-147 -1093h-261l-155 1068v-1068h-368v1619h545q24 -146 51 -344l58 -412l96 756h549z" />
    <glyph glyph-name="N" unicode="N" horiz-adv-x="1109" 
d="M1024 1619v-1619h-369l-219 736v-736h-352v1619h352l236 -729v729h352z" />
    <glyph glyph-name="O" unicode="O" horiz-adv-x="1119" 
d="M1046 671q0 -244 -11.5 -345.5t-72 -185.5t-163.5 -129t-240 -45q-130 0 -233.5 42.5t-166.5 127.5t-75 185t-12 350v277q0 244 11.5 345.5t72 185.5t163.5 129t240 45q130 0 233.5 -42.5t166.5 -127.5t75 -185t12 -350v-277zM625 1203q0 113 -12.5 144.5t-51.5 31.5
q-33 0 -50.5 -25.5t-17.5 -150.5v-756q0 -141 11.5 -174t53.5 -33q43 0 55 38t12 181v744z" />
    <glyph glyph-name="P" unicode="P" horiz-adv-x="1028" 
d="M84 1619h424q172 0 264.5 -27t139 -78t63 -123.5t16.5 -224.5v-141q0 -155 -32 -226t-117.5 -109t-223.5 -38h-113v-652h-421v1619zM505 1342v-412q18 -1 31 -1q58 0 80.5 28.5t22.5 118.5v133q0 83 -26 108t-108 25z" />
    <glyph glyph-name="Q" unicode="Q" horiz-adv-x="1119" 
d="M1047 0v-196h-318q-115 0 -162 17.5t-63.5 52.5t-16.5 126q-143 4 -246 75t-136 180.5t-33 327.5v501q0 165 19.5 251.5t80.5 163t157 115.5t213 39q141 0 251.5 -48t165 -122t71 -153.5t16.5 -236.5v-526q0 -216 -21 -293t-80.5 -122.5t-158.5 -69.5q3 -54 22.5 -68
t92.5 -14h146zM625 1203q0 113 -12.5 144.5t-51.5 31.5q-33 0 -50.5 -25.5t-17.5 -150.5v-756q0 -141 11.5 -174t53.5 -33q43 0 55 38t12 181v744z" />
    <glyph glyph-name="R" unicode="R" horiz-adv-x="1103" 
d="M84 1619h298q298 0 403.5 -23t172 -117.5t66.5 -301.5q0 -189 -47 -254t-185 -78q125 -31 168 -83t53.5 -95.5t10.5 -239.5v-427h-391v538q0 130 -20.5 161t-107.5 31v-730h-421v1619zM505 1342v-360q71 0 99.5 19.5t28.5 126.5v89q0 77 -27.5 101t-100.5 24z" />
    <glyph glyph-name="S" unicode="S" horiz-adv-x="1059" 
d="M976 1129h-391v120q0 84 -15 107t-50 23q-38 0 -57.5 -31t-19.5 -94q0 -81 22 -122q21 -41 119 -99q281 -167 354 -274t73 -345q0 -173 -40.5 -255t-156.5 -137.5t-270 -55.5q-169 0 -288.5 64t-156.5 163t-37 281v106h391v-197q0 -91 16.5 -117t58.5 -26t62.5 33
t20.5 98q0 143 -39 187q-40 44 -197 147q-157 104 -208 151t-84.5 130t-33.5 212q0 186 47.5 272t153.5 134.5t256 48.5q164 0 279.5 -53t153 -133.5t37.5 -273.5v-64z" />
    <glyph glyph-name="T" unicode="T" horiz-adv-x="944" 
d="M932 1619v-324h-250v-1295h-421v1295h-249v324h920z" />
    <glyph glyph-name="U" unicode="U" horiz-adv-x="1120" 
d="M1041 1619v-1082q0 -184 -12 -258.5t-71 -153t-155.5 -119t-227.5 -40.5q-145 0 -256 48t-166 125t-65 162.5t-10 359.5v958h421v-1214q0 -106 11.5 -135.5t46.5 -29.5q40 0 51.5 32.5t11.5 153.5v1193h421z" />
    <glyph glyph-name="V" unicode="V" horiz-adv-x="1072" 
d="M1084 1619l-214 -1619h-639l-243 1619h444q77 -669 110 -1131q33 467 69 830l29 301h444z" />
    <glyph glyph-name="W" unicode="W" horiz-adv-x="1668" 
d="M1668 1619l-187 -1619h-526q-72 373 -127 848q-25 -203 -117 -848h-523l-188 1619h409l43 -565l44 -545q23 423 116 1110h438q9 -71 46 -534l46 -615q35 587 117 1149h409z" />
    <glyph glyph-name="X" unicode="X" horiz-adv-x="988" 
d="M937 1619l-147 -716l222 -903h-390q-70 242 -128 589q-16 -153 -44 -325l-40 -264h-410l152 903l-152 716h407q11 -67 44 -223q26 -119 43 -218l90 441h353z" />
    <glyph glyph-name="Y" unicode="Y" horiz-adv-x="969" 
d="M981 1619l-307 -1033v-586h-390v586l-296 1033h387q91 -473 102 -637q35 259 117 637h387z" />
    <glyph glyph-name="Z" unicode="Z" horiz-adv-x="813" 
d="M788 1619v-324l-314 -971h314v-324h-776v235l324 1060h-286v324h738z" />
    <glyph glyph-name="bracketleft" unicode="[" horiz-adv-x="578" 
d="M541 1619v-249h-91v-1121h91v-249h-457v1619h457z" />
    <glyph glyph-name="backslash" unicode="\" horiz-adv-x="810" 
d="M12 1650h303l483 -1681h-305z" />
    <glyph glyph-name="bracketright" unicode="]" horiz-adv-x="578" 
d="M36 0v249h91v1121h-91v249h457v-1619h-457z" />
    <glyph glyph-name="asciicircum" unicode="^" horiz-adv-x="990" 
d="M12 820l376 799h223l366 -799h-284l-198 489l-197 -489h-286z" />
    <glyph glyph-name="underscore" unicode="_" horiz-adv-x="1131" 
d="M-12 -154h1155v-102h-1155v102z" />
    <glyph glyph-name="grave" unicode="`" horiz-adv-x="683" 
d="M0 1772h356l176 -271h-203z" />
    <glyph glyph-name="a" unicode="a" horiz-adv-x="1032" 
d="M433 813h-379v89q0 154 35.5 237.5t142.5 147.5t278 64q205 0 309 -72.5t125 -178t21 -434.5v-666h-393v118q-37 -71 -95.5 -106.5t-139.5 -35.5q-106 0 -194.5 59.5t-88.5 260.5v109q0 149 47 203t233 126q199 78 213 105t14 110q0 104 -15.5 135.5t-51.5 31.5
q-41 0 -51 -26.5t-10 -137.5v-139zM561 631q-97 -71 -112.5 -119t-15.5 -138q0 -103 13.5 -133t53.5 -30q38 0 49.5 23.5t11.5 123.5v273z" />
    <glyph glyph-name="b" unicode="b" horiz-adv-x="1064" 
d="M476 1619v-383q50 58 111.5 86.5t133.5 28.5q83 0 144 -26t93 -73t38.5 -92t6.5 -192v-598q0 -146 -19.5 -217.5t-91.5 -124t-171 -52.5q-71 0 -132.5 31t-112.5 93l-26 -100h-378v1619h404zM599 950q0 103 -13 134.5t-51 31.5q-37 0 -48 -27.5t-11 -138.5v-572
q0 -107 12.5 -137t49.5 -30q38 0 49.5 31t11.5 149v559z" />
    <glyph glyph-name="c" unicode="c" horiz-adv-x="1013" 
d="M965 826h-381v153q0 80 -13 108.5t-48 28.5t-47 -25t-12 -112v-626q0 -71 18 -106.5t53 -35.5q41 0 55.5 37t14.5 140v158h360q-1 -159 -11.5 -238.5t-67 -163t-147.5 -126t-225 -42.5q-171 0 -271 58.5t-141.5 164t-41.5 299.5v377q0 169 34 255t145 153.5t270 67.5
q158 0 270 -67t149 -169t37 -289z" />
    <glyph glyph-name="d" unicode="d" horiz-adv-x="1064" 
d="M991 1619v-1619h-404v96q-58 -60 -122 -90t-134 -30q-94 0 -163 49.5t-88.5 114.5t-19.5 212v621q0 153 19.5 217t89.5 112.5t167 48.5q75 0 137.5 -27t113.5 -81v376h404zM587 993q0 73 -12.5 98t-49.5 25q-36 0 -48.5 -22.5t-12.5 -100.5v-650q0 -81 12 -106.5
t46 -25.5q39 0 52 28.5t13 139.5v614z" />
    <glyph glyph-name="e" unicode="e" 
d="M987 640h-523v-287q0 -90 13 -116t50 -26q46 0 61.5 34.5t15.5 133.5v175h383v-98q0 -123 -15.5 -189t-72.5 -141t-144.5 -112.5t-219.5 -37.5q-128 0 -226 37t-152.5 101.5t-75.5 142t-21 225.5v387q0 174 47 274.5t154 154t246 53.5q170 0 280.5 -64.5t155 -171
t44.5 -299.5v-176zM582 856v97q0 103 -11 133t-45 30q-42 0 -52 -25.5t-10 -137.5v-97h118z" />
    <glyph glyph-name="f" unicode="f" horiz-adv-x="592" 
d="M587 1619v-205q-125 0 -147.5 -11.5t-22.5 -65.5v-42h170v-210h-96v-1085h-404v1085h-83v210h83q0 131 9 175t44.5 78.5t99.5 52.5t199 18h148z" />
    <glyph glyph-name="g" unicode="g" horiz-adv-x="1062" 
d="M990 1327v-1022q0 -207 -9.5 -267.5t-67.5 -128t-161.5 -103t-260.5 -35.5q-193 0 -310 65.5t-121 257.5h392q0 -88 64 -88q46 0 61 27t15 113v100q-52 -47 -109.5 -71t-120.5 -24q-109 0 -179.5 44t-96.5 115.5t-26 203.5v482q0 189 68 272t207 83q76 0 138.5 -31
t111.5 -93l29 100h376zM585 975q0 91 -10.5 116t-46.5 25q-35 0 -49.5 -28.5t-14.5 -112.5v-446q0 -89 11 -115.5t46 -26.5q40 0 52 32t12 145v411z" />
    <glyph glyph-name="h" unicode="h" horiz-adv-x="1073" 
d="M476 1619v-364q52 48 112.5 72t129.5 24q106 0 180.5 -54t91 -124.5t16.5 -257.5v-915h-404v934q0 116 -11.5 149t-51.5 33q-37 0 -50 -34t-13 -135v-947h-404v1619h404z" />
    <glyph glyph-name="i" unicode="i" horiz-adv-x="561" 
d="M488 1619v-211h-416v211h416zM488 1327v-1327h-416v1327h416z" />
    <glyph glyph-name="j" unicode="j" horiz-adv-x="573" 
d="M500 1619v-211h-416v211h416zM500 1327v-1050q0 -185 -7.5 -250.5t-46 -115t-103 -73.5t-193.5 -24h-156v212q72 0 81 16t9 200v1085h416z" />
    <glyph glyph-name="k" unicode="k" horiz-adv-x="979" 
d="M942 1327l-164 -529l213 -798h-389l-126 578v-578h-404v1619h404v-680l126 388h340z" />
    <glyph glyph-name="l" unicode="l" horiz-adv-x="561" 
d="M488 1619v-1619h-416v1619h416z" />
    <glyph glyph-name="m" unicode="m" horiz-adv-x="1579" 
d="M471 1327l-7 -126q47 75 112 112.5t148 37.5q162 0 255 -150q51 75 115 112.5t142 37.5q103 0 170.5 -50t86.5 -122.5t19 -235.5v-943h-392v865q0 170 -11.5 210.5t-53.5 40.5q-43 0 -55.5 -40t-12.5 -211v-865h-392v843q0 195 -9.5 234t-52.5 39q-27 0 -46 -20.5
t-21 -50t-2 -125.5v-920h-392v1327h399z" />
    <glyph glyph-name="n" unicode="n" horiz-adv-x="1071" 
d="M483 1327l-7 -122q44 73 107.5 109.5t146.5 36.5q104 0 170 -49t85 -123.5t19 -248.5v-930h-404v919q0 137 -9 167t-50 30q-43 0 -54 -34.5t-11 -184.5v-897h-404v1327h411z" />
    <glyph glyph-name="o" unicode="o" 
d="M986 861v-325q0 -179 -18 -262.5t-77 -156t-151.5 -107t-212.5 -34.5q-134 0 -227 29.5t-144.5 89t-73.5 144t-22 253.5v340q0 185 40 289t144 167t266 63q136 0 233.5 -40.5t150.5 -105.5t72.5 -134t19.5 -210zM582 961q0 102 -11 128.5t-47 26.5t-48 -26.5t-12 -128.5
v-599q0 -94 12 -122.5t47 -28.5q36 0 47.5 26t11.5 112v612z" />
    <glyph glyph-name="p" unicode="p" horiz-adv-x="1063" 
d="M483 1327l-7 -117q54 71 119 106t142 35q94 0 162.5 -50.5t85.5 -116.5t17 -224v-559q0 -181 -21.5 -257.5t-88 -122t-160.5 -45.5q-75 0 -139 35t-117 104v-304h-404v1516h411zM598 941q0 123 -9 149t-50 26q-40 0 -51.5 -30t-11.5 -145v-550q0 -120 12 -150t52 -30
q39 0 48.5 27.5t9.5 133.5v569z" />
    <glyph glyph-name="q" unicode="q" horiz-adv-x="1061" 
d="M988 1327v-1516h-404v296q-59 -86 -108.5 -108.5t-122.5 -22.5q-106 0 -175.5 50t-93.5 129.5t-24 243.5v585q0 135 18 201.5t86.5 116t162.5 49.5q76 0 140 -34t117 -103l7 113h397zM584 966q0 88 -13.5 119t-48.5 31q-34 0 -46 -27t-12 -123v-591q0 -107 12 -135.5
t49 -28.5q35 0 47 29.5t12 128.5v597z" />
    <glyph glyph-name="r" unicode="r" horiz-adv-x="733" 
d="M476 1327l-16 -174q88 187 255 198v-467q-111 0 -163 -30t-64 -83.5t-12 -246.5v-524h-404v1327h404z" />
    <glyph glyph-name="s" unicode="s" horiz-adv-x="964" 
d="M897 903h-358v72q0 92 -10.5 116.5t-52.5 24.5q-34 0 -51 -22.5t-17 -67.5q0 -61 8.5 -89.5t51 -62.5t174.5 -99q176 -86 231 -162t55 -221q0 -162 -42 -244.5t-140.5 -127t-237.5 -44.5q-154 0 -263.5 48t-150.5 130t-41 248v64h358v-84q0 -107 13.5 -139t53.5 -32
q43 0 60 21.5t17 90.5q0 95 -22 119q-23 24 -235 142q-178 100 -217 181.5t-39 193.5q0 159 42 234.5t142.5 116.5t233.5 41q132 0 224.5 -33.5t142 -88.5t60 -102t10.5 -147v-77z" />
    <glyph glyph-name="t" unicode="t" horiz-adv-x="624" 
d="M498 1504v-209h109v-210h-109v-710q0 -131 13.5 -146t112.5 -15v-214h-163q-138 0 -197 11.5t-104 53t-56 95t-11 251.5v674h-87v210h87v209h405z" />
    <glyph glyph-name="u" unicode="u" horiz-adv-x="1070" 
d="M997 1327v-1327h-411l7 110q-42 -67 -103.5 -100.5t-141.5 -33.5q-91 0 -151 32t-88.5 85t-35.5 110.5t-7 228.5v895h404v-903q0 -155 9.5 -184t51.5 -29q45 0 53.5 30t8.5 193v893h404z" />
    <glyph glyph-name="v" unicode="v" horiz-adv-x="895" 
d="M907 1327l-189 -1327h-527l-203 1327h361l113 -968q13 106 44 520q18 231 40 448h361z" />
    <glyph glyph-name="w" unicode="w" horiz-adv-x="1371" 
d="M1377 1327l-161 -1327h-439q-36 243 -83 640q-16 -174 -45 -352l-45 -288h-439l-171 1327h348q4 -52 88 -759q6 72 90 759h335l82 -759q19 332 92 759h348z" />
    <glyph glyph-name="x" unicode="x" horiz-adv-x="888" 
d="M872 1327l-161 -634l195 -693h-393q-58 262 -88 451q-40 -236 -87 -451h-338l174 693l-174 634h338q81 -406 87 -461q58 339 88 461h359z" />
    <glyph glyph-name="y" unicode="y" horiz-adv-x="918" 
d="M918 1327l-116 -960q-27 -228 -45.5 -311t-61.5 -137t-119.5 -79.5t-244.5 -25.5h-245v212q94 0 121 9.5t27 42.5q0 16 -25 139l-221 1110h367l132 -895l64 895h367z" />
    <glyph glyph-name="z" unicode="z" horiz-adv-x="719" 
d="M701 1327v-294l-298 -767h298v-266h-689v278l305 783h-274v266h658z" />
    <glyph glyph-name="braceleft" unicode="{" horiz-adv-x="757" 
d="M36 538v240q109 1 164 64.5t55 285.5q0 169 12.5 250.5t60.5 136.5t124 79.5t215 24.5h53v-239q-145 0 -173.5 -30t-30.5 -117q-6 -240 -15.5 -312t-44 -137.5t-128.5 -125.5q89 -54 129.5 -129t47.5 -216l15 -291q9 -42 43 -63.5t156 -21.5v-240h-52q-160 0 -247 36.5
t-126 119.5t-39 268q0 204 -14 261t-54 104.5t-151 51.5z" />
    <glyph glyph-name="bar" unicode="|" horiz-adv-x="555" 
d="M169 1619h217v-1884h-217v1884z" />
    <glyph glyph-name="braceright" unicode="}" horiz-adv-x="757" 
d="M720 538q-109 -1 -164 -65t-55 -284q0 -170 -12 -251.5t-60 -136.5t-124 -79.5t-215 -24.5h-53v240q139 0 170.5 29t33.5 118q6 256 18.5 328.5t50 135.5t118.5 110q-86 56 -120 110t-46 117.5t-18 236t-14 197.5t-38.5 43t-155.5 18v239h53q160 0 247 -36.5t126 -119.5
t39 -268q0 -212 15.5 -267t55 -100.5t148.5 -49.5v-240z" />
    <glyph glyph-name="asciitilde" unicode="~" horiz-adv-x="1075" 
d="M1018 787q-158 -131 -284 -131q-86 0 -256 82q-97 47 -142 47q-109 0 -279 -162v277q147 128 289 128q85 0 232 -70q119 -57 169 -57q46 0 98 26.5t173 134.5v-275z" />
    <glyph glyph-name="dieresis" unicode="&#xa8;" horiz-adv-x="1024" 
 />
    <glyph glyph-name="copyright" unicode="&#xa9;" horiz-adv-x="1605" 
d="M782 1532q348 0 567 -230t219 -536q0 -316 -225 -541t-541 -225q-318 0 -542 224.5t-224 541.5q0 218 113.5 401t291.5 274t341 91zM818 1381q-276 0 -453.5 -183t-177.5 -432q0 -253 180.5 -434t434.5 -181t434.5 181t180.5 434q0 264 -186.5 439.5t-412.5 175.5z
M988 653l161 -55q-81 -260 -339 -260q-175 0 -279.5 115.5t-104.5 308.5q0 199 106 313.5t274 114.5q256 0 343 -243l-162 -38q-52 139 -178 139q-100 0 -153.5 -75.5t-53.5 -199.5q0 -139 51.5 -215.5t145.5 -76.5q135 0 189 172z" />
    <glyph glyph-name="registered" unicode="&#xae;" horiz-adv-x="1605" 
d="M782 1532q343 0 564.5 -228t221.5 -538q0 -316 -225 -541t-541 -225q-318 0 -542 224.5t-224 541.5q0 223 118.5 409.5t296.5 271.5t331 85zM820 1383q-282 0 -457 -186t-175 -431q0 -254 181 -435t435 -181q253 0 434 181t181 435q0 175 -91 322.5t-234 221t-274 73.5z
M465 357v813h385q143 0 208 -66.5t65 -163.5q0 -94 -54.5 -151t-164.5 -77q50 -19 79.5 -51.5t93.5 -140.5l95 -163h-203l-68 131q-61 117 -107.5 159.5t-121.5 42.5h-43v-333h-164zM629 819h134q101 0 143.5 26.5t42.5 86.5q0 54 -42 81t-127 27h-151v-221z" />
    <glyph glyph-name="acute" unicode="&#xb4;" horiz-adv-x="1024" 
 />
    <glyph glyph-name="paragraph" unicode="&#xb6;" horiz-adv-x="1024" 
d="M929 1435v-70h-127v-1365h-82v1365h-166v-1365h-84v738q-174 8 -275.5 102.5t-101.5 245.5q0 157 107.5 253t285.5 96h443z" />
    <glyph glyph-name="onequarter" unicode="&#xbc;" horiz-adv-x="1321" 
d="M1001 1650l-633 -1681h-154l635 1681h152zM440 1636v-853h-255v457q0 98 -5 115t-30 26.5t-110 9.5h-28v110q183 33 278 135h150zM1262 155v-155h-556v128q250 344 293.5 419t43.5 119q0 60 -54 60q-28 0 -41 -16.5t-13 -70.5v-85h-229v36q0 88 19 143t83 95t171 40
q150 0 227.5 -63.5t77.5 -162.5q0 -73 -43.5 -153.5t-176.5 -245.5l-69 -88h267z" />
    <glyph glyph-name="onehalf" unicode="&#xbd;" horiz-adv-x="1277" 
d="M1001 1650l-633 -1681h-154l635 1681h152zM440 1636v-853h-255v457q0 98 -5 115t-30 26.5t-110 9.5h-28v110q183 33 278 135h150zM1182 854v-550h71v-156h-71v-148h-256v148h-297v151l218 555h335zM926 304v335l-126 -335h126z" />
    <glyph glyph-name="threequarters" unicode="&#xbe;" horiz-adv-x="1416" 
d="M532 1263q45 -14 72.5 -53t27.5 -169q0 -170 -82.5 -222.5t-213.5 -52.5q-121 0 -189.5 35t-89.5 86t-21 170v56h255v-127q0 -53 7 -65.5t33 -12.5q29 0 37.5 17t8.5 94v54q0 67 -27 84t-124 18v134q108 0 129.5 13t21.5 72v48q0 44 -11 55t-32 11q-25 0 -34 -12t-9 -60
v-59h-255v62q0 125 65.5 168t211.5 43q177 0 243 -59t66 -170q0 -47 -16 -89.5t-74 -68.5zM1139 1650l-632 -1681h-154l634 1681h152zM1320 854v-550h71v-156h-71v-148h-255v148h-298v151l218 555h335zM1065 304v335l-127 -335h127z" />
    <glyph glyph-name="Agrave" unicode="&#xc0;" horiz-adv-x="1040" 
d="M811 1619l241 -1619h-431l-21 291h-151l-25 -291h-436l214 1619h609zM588 578q-32 275 -64 679q-64 -464 -80 -679h144zM471 1896l135 -208h-156l-252 208h273z" />
    <glyph glyph-name="Aacute" unicode="&#xc1;" horiz-adv-x="1040" 
d="M811 1619l241 -1619h-431l-21 291h-151l-25 -291h-436l214 1619h609zM588 578q-32 275 -64 679q-64 -464 -80 -679h144zM834 1896l-252 -208h-156l135 208h273z" />
    <glyph glyph-name="uni1EA2" unicode="&#x1ea2;" horiz-adv-x="1040" 
d="M811 1619l241 -1619h-431l-21 291h-151l-25 -291h-436l214 1619h609zM588 578q-32 275 -64 679q-64 -464 -80 -679h144zM459 1688v32q0 34 74 114q17 16 26.5 35t9.5 39q0 26 -8 36q-5 9 -31 11q-53 0 -53 -55v-39h-110v47q0 53 41 96q47 46 127 46q69 0 113 -34t44 -102
q0 -61 -66 -116q-68 -55 -68 -110h-99z" />
    <glyph glyph-name="Atilde" unicode="&#xc3;" horiz-adv-x="1040" 
d="M811 1619l241 -1619h-431l-21 291h-151l-25 -291h-436l214 1619h609zM588 578q-32 275 -64 679q-64 -464 -80 -679h144zM732 1902l53 -119q-16 -18 -37 -38q-11 -10 -33 -27q-39 -26 -84 -26l-38 3l-37 11l-43 19l-73 29l-28 5l-28 1q-33 0 -61 -23q-16 -14 -35 -49
l-41 127q10 16 21 30q11 12 29 28q41 26 91 26q12 0 26 -1q15 -3 36 -9l35 -9l30 -13l63 -25q28 -11 53 -11q36 0 68 33z" />
    <glyph glyph-name="uni1EA0" unicode="&#x1ea0;" horiz-adv-x="1040" 
d="M811 1619l241 -1619h-431l-21 291h-151l-25 -291h-436l214 1619h609zM588 578q-32 275 -64 679q-64 -464 -80 -679h144zM638 -123v-214h-224v214h224z" />
    <glyph glyph-name="Acircumflex" unicode="&#xc2;" horiz-adv-x="1040" 
d="M811 1619l241 -1619h-431l-21 291h-151l-25 -291h-436l214 1619h609zM588 578q-32 275 -64 679q-64 -464 -80 -679h144zM515 1800l-79 -112h-190l174 242h191l163 -242h-184z" />
    <glyph glyph-name="uni1EA6" unicode="&#x1ea6;" horiz-adv-x="1040" 
d="M811 1619l241 -1619h-431l-21 291h-151l-25 -291h-436l214 1619h609zM588 578q-32 275 -64 679q-64 -464 -80 -679h144zM515 1800l-79 -112h-190l174 242h191l163 -242h-184zM461 2196l135 -208h-156l-252 208h273z" />
    <glyph glyph-name="uni1EA4" unicode="&#x1ea4;" horiz-adv-x="1040" 
d="M811 1619l241 -1619h-431l-21 291h-151l-25 -291h-436l214 1619h609zM588 578q-32 275 -64 679q-64 -464 -80 -679h144zM515 1800l-79 -112h-190l174 242h191l163 -242h-184zM844 2196l-252 -208h-156l135 208h273z" />
    <glyph glyph-name="uni1EA8" unicode="&#x1ea8;" horiz-adv-x="1040" 
d="M811 1619l241 -1619h-431l-21 291h-151l-25 -291h-436l214 1619h609zM588 578q-32 275 -64 679q-64 -464 -80 -679h144zM509 1800l-80 -112h-189l174 242h190l163 -242h-183zM679 1883v32q0 34 74 114q17 16 26.5 35t9.5 39q0 26 -8 36q-5 9 -31 11q-53 0 -53 -55v-39
h-110v47q0 53 41 96q47 46 127 46q69 0 113 -34t44 -102q0 -61 -66 -116q-68 -55 -68 -110h-99z" />
    <glyph glyph-name="uni1EAA" unicode="&#x1eaa;" horiz-adv-x="1040" 
d="M811 1619l241 -1619h-431l-21 291h-151l-25 -291h-436l214 1619h609zM588 578q-32 275 -64 679q-64 -464 -80 -679h144zM499 1800l-80 -112h-189l174 242h190l163 -242h-183zM761 2169l53 -119q-16 -18 -37 -38q-11 -10 -33 -27q-39 -26 -84 -26l-38 3l-37 11l-43 19
l-73 29l-28 5l-28 1q-33 0 -61 -23q-16 -14 -35 -49l-41 127q10 16 21 30q11 12 29 28q41 26 91 26q12 0 26 -1q15 -3 36 -9l35 -9l30 -13l63 -25q28 -11 53 -11q36 0 68 33z" />
    <glyph glyph-name="uni1EAC" unicode="&#x1eac;" horiz-adv-x="1040" 
d="M811 1619l241 -1619h-431l-21 291h-151l-25 -291h-436l214 1619h609zM588 578q-32 275 -64 679q-64 -464 -80 -679h144zM515 1800l-79 -112h-190l174 242h191l163 -242h-184zM638 -123v-214h-224v214h224z" />
    <glyph glyph-name="Abreve" unicode="&#x102;" horiz-adv-x="1040" 
d="M811 1619l241 -1619h-431l-21 291h-151l-25 -291h-436l214 1619h609zM588 578q-32 275 -64 679q-64 -464 -80 -679h144zM384 1922q0 -50 34 -79q34 -26 92 -26q59 0 88 22q27 23 37 83h130q0 -115 -70 -174.5t-185 -59.5q-121 0 -188 56q-68 56 -68 178h130z" />
    <glyph glyph-name="uni1EB0" unicode="&#x1eb0;" horiz-adv-x="1040" 
d="M811 1619l241 -1619h-431l-21 291h-151l-25 -291h-436l214 1619h609zM588 578q-32 275 -64 679q-64 -464 -80 -679h144zM384 1922q0 -50 34 -79q34 -26 92 -26q59 0 88 22q27 23 37 83h130q0 -115 -70 -174.5t-185 -59.5q-121 0 -188 56q-68 56 -68 178h130zM462 2137
l135 -208h-156l-252 208h273z" />
    <glyph glyph-name="uni1EAE" unicode="&#x1eae;" horiz-adv-x="1040" 
d="M811 1619l241 -1619h-431l-21 291h-151l-25 -291h-436l214 1619h609zM588 578q-32 275 -64 679q-64 -464 -80 -679h144zM384 1922q0 -50 34 -79q34 -26 92 -26q59 0 88 22q27 23 37 83h130q0 -115 -70 -174.5t-185 -59.5q-121 0 -188 56q-68 56 -68 178h130zM835 2137
l-252 -208h-156l135 208h273z" />
    <glyph glyph-name="uni1EB2" unicode="&#x1eb2;" horiz-adv-x="1040" 
d="M811 1619l241 -1619h-431l-21 291h-151l-25 -291h-436l214 1619h609zM588 578q-32 275 -64 679q-64 -464 -80 -679h144zM384 1922q0 -50 34 -79q34 -26 92 -26q59 0 88 22q27 23 37 83h130q0 -115 -70 -174.5t-185 -59.5q-121 0 -188 56q-68 56 -68 178h130zM471 1916v32
q0 34 74 114q17 16 26.5 35t9.5 39q0 26 -8 36q-5 9 -31 11q-53 0 -53 -55v-39h-110v47q0 53 41 96q47 46 127 46q69 0 113 -34t44 -102q0 -61 -66 -116q-68 -55 -68 -110h-99z" />
    <glyph glyph-name="uni1EB4" unicode="&#x1eb4;" horiz-adv-x="1040" 
d="M811 1619l241 -1619h-431l-21 291h-151l-25 -291h-436l214 1619h609zM588 578q-32 275 -64 679q-64 -464 -80 -679h144zM384 1922q0 -50 34 -79q34 -26 92 -26q59 0 88 22q27 23 37 83h130q0 -115 -70 -174.5t-185 -59.5q-121 0 -188 56q-68 56 -68 178h130zM715 2170
l53 -119q-16 -18 -37 -38q-11 -10 -33 -27q-39 -26 -84 -26l-38 3l-37 11l-43 19l-73 29l-28 5l-28 1q-33 0 -61 -23q-16 -14 -35 -49l-41 127q10 16 21 30q11 12 29 28q41 26 91 26q12 0 26 -1q15 -3 36 -9l35 -9l30 -13l63 -25q28 -11 53 -11q36 0 68 33z" />
    <glyph glyph-name="uni1EB6" unicode="&#x1eb6;" horiz-adv-x="1040" 
d="M811 1619l241 -1619h-431l-21 291h-151l-25 -291h-436l214 1619h609zM588 578q-32 275 -64 679q-64 -464 -80 -679h144zM384 1922q0 -50 34 -79q34 -26 92 -26q59 0 88 22q27 23 37 83h130q0 -115 -70 -174.5t-185 -59.5q-121 0 -188 56q-68 56 -68 178h130zM638 -123
v-214h-224v214h224z" />
    <glyph glyph-name="Egrave" unicode="&#xc8;" horiz-adv-x="851" 
d="M84 1619h702v-324h-281v-307h263v-308h-263v-356h309v-324h-730v1619zM382 1896l135 -208h-156l-252 208h273z" />
    <glyph glyph-name="Eacute" unicode="&#xc9;" horiz-adv-x="851" 
d="M84 1619h702v-324h-281v-307h263v-308h-263v-356h309v-324h-730v1619zM765 1896l-252 -208h-156l135 208h273z" />
    <glyph glyph-name="uni1EBA" unicode="&#x1eba;" horiz-adv-x="851" 
d="M84 1619h702v-324h-281v-307h263v-308h-263v-356h309v-324h-730v1619zM379 1688v32q0 34 74 114q17 16 26 35t9 39q0 26 -7 36q-5 9 -31 11q-53 0 -53 -55v-39h-110v47q0 53 41 96q46 46 127 46q69 0 113 -34t44 -102q0 -61 -67 -116q-68 -55 -68 -110h-98z" />
    <glyph glyph-name="uni1EBC" unicode="&#x1ebc;" horiz-adv-x="851" 
d="M84 1619h702v-324h-281v-307h263v-308h-263v-356h309v-324h-730v1619zM665 1902l53 -119q-16 -18 -37 -38q-11 -10 -33 -27q-39 -26 -84 -26l-38 3l-37 11l-43 19l-73 29l-28 5l-28 1q-33 0 -61 -23q-16 -14 -35 -49l-41 127q10 16 21 30q11 12 29 28q41 26 91 26
q12 0 26 -1q15 -3 36 -9l35 -9l30 -13l63 -25q28 -11 53 -11q36 0 68 33z" />
    <glyph glyph-name="uni1EB8" unicode="&#x1eb8;" horiz-adv-x="851" 
d="M84 1619h702v-324h-281v-307h263v-308h-263v-356h309v-324h-730v1619zM561 -123v-214h-224v214h224z" />
    <glyph glyph-name="Ecircumflex" unicode="&#xca;" horiz-adv-x="851" 
d="M84 1619h702v-324h-281v-307h263v-308h-263v-356h309v-324h-730v1619zM454 1800l-79 -112h-190l174 242h191l163 -242h-184z" />
    <glyph glyph-name="uni1EC0" unicode="&#x1ec0;" horiz-adv-x="851" 
d="M84 1619h702v-324h-281v-307h263v-308h-263v-356h309v-324h-730v1619zM454 1800l-79 -112h-190l174 242h191l163 -242h-184zM378 2196l135 -208h-156l-252 208h273z" />
    <glyph glyph-name="uni1EBE" unicode="&#x1ebe;" horiz-adv-x="851" 
d="M84 1619h702v-324h-281v-307h263v-308h-263v-356h309v-324h-730v1619zM454 1800l-79 -112h-190l174 242h191l163 -242h-184zM811 2196l-252 -208h-156l135 208h273z" />
    <glyph glyph-name="uni1EC2" unicode="&#x1ec2;" horiz-adv-x="851" 
d="M84 1619h702v-324h-281v-307h263v-308h-263v-356h309v-324h-730v1619zM459 1800l-80 -112h-189l174 242h190l163 -242h-183zM629 1883v32q0 34 74 114q17 16 26.5 35t9.5 39q0 26 -8 36q-5 9 -31 11q-53 0 -53 -55v-39h-110v47q0 53 41 96q47 46 127 46q69 0 113 -34
t44 -102q0 -61 -66 -116q-68 -55 -68 -110h-99z" />
    <glyph glyph-name="uni1EC4" unicode="&#x1ec4;" horiz-adv-x="851" 
d="M84 1619h702v-324h-281v-307h263v-308h-263v-356h309v-324h-730v1619zM454 1800l-79 -112h-190l174 242h191l163 -242h-184zM702 2169l53 -119q-16 -18 -37 -38q-11 -10 -33 -27q-39 -26 -84 -26l-38 3l-37 11l-43 19l-73 29l-28 5l-28 1q-33 0 -61 -23q-16 -14 -35 -49
l-41 127q10 16 21 30q11 12 29 28q41 26 91 26q12 0 26 -1q15 -3 36 -9l35 -9l30 -13l63 -25q28 -11 53 -11q36 0 68 33z" />
    <glyph glyph-name="uni1EC6" unicode="&#x1ec6;" horiz-adv-x="851" 
d="M84 1619h702v-324h-281v-307h263v-308h-263v-356h309v-324h-730v1619zM454 1800l-79 -112h-190l174 242h191l163 -242h-184zM561 -123v-214h-224v214h224z" />
    <glyph glyph-name="Igrave" unicode="&#xcc;" horiz-adv-x="590" 
d="M505 1619v-1619h-421v1619h421zM244 1896l135 -208h-156l-252 208h273z" />
    <glyph glyph-name="Iacute" unicode="&#xcd;" horiz-adv-x="590" 
d="M505 1619v-1619h-421v1619h421zM617 1896l-252 -208h-156l135 208h273z" />
    <glyph glyph-name="uni1EC8" unicode="&#x1ec8;" horiz-adv-x="590" 
d="M505 1619v-1619h-421v1619h421zM224 1688v32q0 34 74 114q17 16 26.5 35t9.5 39q0 26 -8 36q-5 9 -31 11q-53 0 -53 -55v-39h-110v47q0 53 41 96q47 46 127 46q69 0 113 -34t44 -102q0 -61 -66 -116q-68 -55 -68 -110h-99z" />
    <glyph glyph-name="Itilde" unicode="&#x128;" horiz-adv-x="590" 
d="M505 1619v-1619h-421v1619h421zM517 1902l53 -119q-16 -18 -37 -38q-11 -10 -33 -27q-39 -26 -84 -26l-38 3l-37 11l-43 19l-73 29l-28 5l-28 1q-33 0 -61 -23q-16 -14 -35 -49l-41 127q10 16 21 30q11 12 29 28q41 26 91 26q12 0 26 -1q15 -3 36 -9l35 -9l30 -13l63 -25
q28 -11 53 -11q36 0 68 33z" />
    <glyph glyph-name="uni1ECA" unicode="&#x1eca;" horiz-adv-x="590" 
d="M505 1619v-1619h-421v1619h421zM407 -123v-214h-224v214h224z" />
    <glyph glyph-name="Ograve" unicode="&#xd2;" horiz-adv-x="1119" 
d="M1046 671q0 -244 -11.5 -345.5t-72 -185.5t-163.5 -129t-240 -45q-130 0 -233.5 42.5t-166.5 127.5t-75 185t-12 350v277q0 244 11.5 345.5t72 185.5t163.5 129t240 45q130 0 233.5 -42.5t166.5 -127.5t75 -185t12 -350v-277zM625 1203q0 113 -12.5 144.5t-51.5 31.5
q-33 0 -50.5 -25.5t-17.5 -150.5v-756q0 -141 11.5 -174t53.5 -33q43 0 55 38t12 181v744zM561 1896l135 -208h-156l-252 208h273z" />
    <glyph glyph-name="Oacute" unicode="&#xd3;" horiz-adv-x="1119" 
d="M1046 671q0 -244 -11.5 -345.5t-72 -185.5t-163.5 -129t-240 -45q-130 0 -233.5 42.5t-166.5 127.5t-75 185t-12 350v277q0 244 11.5 345.5t72 185.5t163.5 129t240 45q130 0 233.5 -42.5t166.5 -127.5t75 -185t12 -350v-277zM625 1203q0 113 -12.5 144.5t-51.5 31.5
q-33 0 -50.5 -25.5t-17.5 -150.5v-756q0 -141 11.5 -174t53.5 -33q43 0 55 38t12 181v744zM874 1896l-252 -208h-156l135 208h273z" />
    <glyph glyph-name="uni1ECE" unicode="&#x1ece;" horiz-adv-x="1119" 
d="M1046 671q0 -244 -11.5 -345.5t-72 -185.5t-163.5 -129t-240 -45q-130 0 -233.5 42.5t-166.5 127.5t-75 185t-12 350v277q0 244 11.5 345.5t72 185.5t163.5 129t240 45q130 0 233.5 -42.5t166.5 -127.5t75 -185t12 -350v-277zM625 1203q0 113 -12.5 144.5t-51.5 31.5
q-33 0 -50.5 -25.5t-17.5 -150.5v-756q0 -141 11.5 -174t53.5 -33q43 0 55 38t12 181v744zM489 1688v32q0 34 74 114q17 16 26 35t9 39q0 26 -7 36q-5 9 -31 11q-53 0 -53 -55v-39h-110v47q0 53 41 96q46 46 127 46q69 0 113 -34t44 -102q0 -61 -67 -116q-68 -55 -68 -110
h-98z" />
    <glyph glyph-name="Otilde" unicode="&#xd5;" horiz-adv-x="1119" 
d="M1046 671q0 -244 -11.5 -345.5t-72 -185.5t-163.5 -129t-240 -45q-130 0 -233.5 42.5t-166.5 127.5t-75 185t-12 350v277q0 244 11.5 345.5t72 185.5t163.5 129t240 45q130 0 233.5 -42.5t166.5 -127.5t75 -185t12 -350v-277zM625 1203q0 113 -12.5 144.5t-51.5 31.5
q-33 0 -50.5 -25.5t-17.5 -150.5v-756q0 -141 11.5 -174t53.5 -33q43 0 55 38t12 181v744zM775 1902l53 -119q-16 -18 -37 -38q-11 -10 -33 -27q-39 -26 -84 -26l-38 3l-37 11l-43 19l-73 29l-28 5l-28 1q-33 0 -61 -23q-16 -14 -35 -49l-41 127q10 16 21 30q11 12 29 28
q41 26 91 26q12 0 26 -1q15 -3 36 -9l35 -9l30 -13l63 -25q28 -11 53 -11q36 0 68 33z" />
    <glyph glyph-name="uni1ECC" unicode="&#x1ecc;" horiz-adv-x="1119" 
d="M1046 671q0 -244 -11.5 -345.5t-72 -185.5t-163.5 -129t-240 -45q-130 0 -233.5 42.5t-166.5 127.5t-75 185t-12 350v277q0 244 11.5 345.5t72 185.5t163.5 129t240 45q130 0 233.5 -42.5t166.5 -127.5t75 -185t12 -350v-277zM625 1203q0 113 -12.5 144.5t-51.5 31.5
q-33 0 -50.5 -25.5t-17.5 -150.5v-756q0 -141 11.5 -174t53.5 -33q43 0 55 38t12 181v744zM671 -123v-214h-224v214h224z" />
    <glyph glyph-name="Ocircumflex" unicode="&#xd4;" horiz-adv-x="1119" 
d="M1046 671q0 -244 -11.5 -345.5t-72 -185.5t-163.5 -129t-240 -45q-130 0 -233.5 42.5t-166.5 127.5t-75 185t-12 350v277q0 244 11.5 345.5t72 185.5t163.5 129t240 45q130 0 233.5 -42.5t166.5 -127.5t75 -185t12 -350v-277zM625 1203q0 113 -12.5 144.5t-51.5 31.5
q-33 0 -50.5 -25.5t-17.5 -150.5v-756q0 -141 11.5 -174t53.5 -33q43 0 55 38t12 181v744zM564 1800l-79 -112h-190l174 242h191l163 -242h-184z" />
    <glyph glyph-name="uni1ED2" unicode="&#x1ed2;" horiz-adv-x="1119" 
d="M1046 671q0 -244 -11.5 -345.5t-72 -185.5t-163.5 -129t-240 -45q-130 0 -233.5 42.5t-166.5 127.5t-75 185t-12 350v277q0 244 11.5 345.5t72 185.5t163.5 129t240 45q130 0 233.5 -42.5t166.5 -127.5t75 -185t12 -350v-277zM625 1203q0 113 -12.5 144.5t-51.5 31.5
q-33 0 -50.5 -25.5t-17.5 -150.5v-756q0 -141 11.5 -174t53.5 -33q43 0 55 38t12 181v744zM564 1800l-79 -112h-190l174 242h191l163 -242h-184zM528 2196l135 -208h-156l-252 208h273z" />
    <glyph glyph-name="uni1ED0" unicode="&#x1ed0;" horiz-adv-x="1119" 
d="M1046 671q0 -244 -11.5 -345.5t-72 -185.5t-163.5 -129t-240 -45q-130 0 -233.5 42.5t-166.5 127.5t-75 185t-12 350v277q0 244 11.5 345.5t72 185.5t163.5 129t240 45q130 0 233.5 -42.5t166.5 -127.5t75 -185t12 -350v-277zM625 1203q0 113 -12.5 144.5t-51.5 31.5
q-33 0 -50.5 -25.5t-17.5 -150.5v-756q0 -141 11.5 -174t53.5 -33q43 0 55 38t12 181v744zM564 1800l-79 -112h-190l174 242h191l163 -242h-184zM901 2196l-252 -208h-156l135 208h273z" />
    <glyph glyph-name="uni1ED4" unicode="&#x1ed4;" horiz-adv-x="1119" 
d="M1046 671q0 -244 -11.5 -345.5t-72 -185.5t-163.5 -129t-240 -45q-130 0 -233.5 42.5t-166.5 127.5t-75 185t-12 350v277q0 244 11.5 345.5t72 185.5t163.5 129t240 45q130 0 233.5 -42.5t166.5 -127.5t75 -185t12 -350v-277zM625 1203q0 113 -12.5 144.5t-51.5 31.5
q-33 0 -50.5 -25.5t-17.5 -150.5v-756q0 -141 11.5 -174t53.5 -33q43 0 55 38t12 181v744zM564 1800l-79 -112h-190l174 242h191l163 -242h-184zM738 1883v32q0 34 74 114q17 16 26.5 35t9.5 39q0 26 -8 36q-5 9 -31 11q-53 0 -53 -55v-39h-110v47q0 53 41 96q47 46 127 46
q69 0 113 -34t44 -102q0 -61 -66 -116q-68 -55 -68 -110h-99z" />
    <glyph glyph-name="uni1ED6" unicode="&#x1ed6;" horiz-adv-x="1119" 
d="M1046 671q0 -244 -11.5 -345.5t-72 -185.5t-163.5 -129t-240 -45q-130 0 -233.5 42.5t-166.5 127.5t-75 185t-12 350v277q0 244 11.5 345.5t72 185.5t163.5 129t240 45q130 0 233.5 -42.5t166.5 -127.5t75 -185t12 -350v-277zM625 1203q0 113 -12.5 144.5t-51.5 31.5
q-33 0 -50.5 -25.5t-17.5 -150.5v-756q0 -141 11.5 -174t53.5 -33q43 0 55 38t12 181v744zM564 1800l-79 -112h-190l174 242h191l163 -242h-184zM831 2169l53 -119q-16 -18 -37 -38q-11 -10 -33 -27q-39 -26 -84 -26l-38 3l-37 11l-43 19l-73 29l-28 5l-28 1q-33 0 -61 -23
q-16 -14 -35 -49l-41 127q10 16 21 30q11 12 29 28q41 26 91 26q12 0 26 -1q15 -3 36 -9l35 -9l30 -13l63 -25q28 -11 53 -11q36 0 68 33z" />
    <glyph glyph-name="uni1ED8" unicode="&#x1ed8;" horiz-adv-x="1119" 
d="M1046 671q0 -244 -11.5 -345.5t-72 -185.5t-163.5 -129t-240 -45q-130 0 -233.5 42.5t-166.5 127.5t-75 185t-12 350v277q0 244 11.5 345.5t72 185.5t163.5 129t240 45q130 0 233.5 -42.5t166.5 -127.5t75 -185t12 -350v-277zM625 1203q0 113 -12.5 144.5t-51.5 31.5
q-33 0 -50.5 -25.5t-17.5 -150.5v-756q0 -141 11.5 -174t53.5 -33q43 0 55 38t12 181v744zM564 1800l-79 -112h-190l174 242h191l163 -242h-184zM671 -123v-214h-224v214h224z" />
    <glyph glyph-name="Ugrave" unicode="&#xd9;" horiz-adv-x="1120" 
d="M1041 1619v-1082q0 -184 -12 -258.5t-71 -153t-155.5 -119t-227.5 -40.5q-145 0 -256 48t-166 125t-65 162.5t-10 359.5v958h421v-1214q0 -106 11.5 -135.5t46.5 -29.5q40 0 51.5 32.5t11.5 153.5v1193h421zM511 1896l135 -208h-156l-252 208h273z" />
    <glyph glyph-name="Uacute" unicode="&#xda;" horiz-adv-x="1120" 
d="M1041 1619v-1082q0 -184 -12 -258.5t-71 -153t-155.5 -119t-227.5 -40.5q-145 0 -256 48t-166 125t-65 162.5t-10 359.5v958h421v-1214q0 -106 11.5 -135.5t46.5 -29.5q40 0 51.5 32.5t11.5 153.5v1193h421zM874 1896l-252 -208h-156l135 208h273z" />
    <glyph glyph-name="uni1EE6" unicode="&#x1ee6;" horiz-adv-x="1120" 
d="M1041 1619v-1082q0 -184 -12 -258.5t-71 -153t-155.5 -119t-227.5 -40.5q-145 0 -256 48t-166 125t-65 162.5t-10 359.5v958h421v-1214q0 -106 11.5 -135.5t46.5 -29.5q40 0 51.5 32.5t11.5 153.5v1193h421zM519 1688v32q0 34 74 114q17 16 26 35t9 39q0 26 -7 36
q-5 9 -31 11q-53 0 -53 -55v-39h-110v47q0 53 41 96q46 46 127 46q69 0 113 -34t44 -102q0 -61 -67 -116q-68 -55 -68 -110h-98z" />
    <glyph glyph-name="Utilde" unicode="&#x168;" horiz-adv-x="1120" 
d="M1041 1619v-1082q0 -184 -12 -258.5t-71 -153t-155.5 -119t-227.5 -40.5q-145 0 -256 48t-166 125t-65 162.5t-10 359.5v958h421v-1214q0 -106 11.5 -135.5t46.5 -29.5q40 0 51.5 32.5t11.5 153.5v1193h421zM775 1902l54 -119q-16 -18 -38 -38q-11 -10 -32 -27
q-39 -26 -85 -26l-37 3l-37 11l-43 19l-73 29l-28 5l-29 1q-32 0 -60 -23q-17 -14 -36 -49l-40 127q9 16 20 30q11 12 30 28q40 26 91 26q11 0 25 -1q15 -3 37 -9l34 -9l30 -13l64 -25q28 -11 52 -11q36 0 69 33z" />
    <glyph glyph-name="uni1EE4" unicode="&#x1ee4;" horiz-adv-x="1120" 
d="M1041 1619v-1082q0 -184 -12 -258.5t-71 -153t-155.5 -119t-227.5 -40.5q-145 0 -256 48t-166 125t-65 162.5t-10 359.5v958h421v-1214q0 -106 11.5 -135.5t46.5 -29.5q40 0 51.5 32.5t11.5 153.5v1193h421zM672 -123v-214h-224v214h224z" />
    <glyph glyph-name="Uhorn" unicode="&#x1af;" horiz-adv-x="1120" 
d="M1041 1456v-919q0 -184 -12 -258.5t-71 -153t-155.5 -119t-227.5 -40.5q-145 0 -256 48t-166 125t-65 162.5t-10 359.5v958h421v-1214q0 -106 11.5 -135.5t46.5 -29.5q40 0 51.5 32.5t11.5 153.5v1193h421v-33q32 29 38 70h-68v222h238l1 -50q0 -114 -19.5 -188.5
t-77.5 -123.5q-47 -41 -112 -60z" />
    <glyph glyph-name="uni1EEA" unicode="&#x1eea;" horiz-adv-x="1120" 
d="M511 1896l135 -208h-156l-252 208h273zM1041 1456v-919q0 -184 -12 -258.5t-71 -153t-155.5 -119t-227.5 -40.5q-145 0 -256 48t-166 125t-65 162.5t-10 359.5v958h421v-1214q0 -106 11.5 -135.5t46.5 -29.5q40 0 51.5 32.5t11.5 153.5v1193h421v-33q32 29 38 70h-68v222
h238l1 -50q0 -114 -19.5 -188.5t-77.5 -123.5q-47 -41 -112 -60z" />
    <glyph glyph-name="uni1EE8" unicode="&#x1ee8;" horiz-adv-x="1120" 
d="M874 1896l-252 -208h-156l135 208h273zM1041 1456v-919q0 -184 -12 -258.5t-71 -153t-155.5 -119t-227.5 -40.5q-145 0 -256 48t-166 125t-65 162.5t-10 359.5v958h421v-1214q0 -106 11.5 -135.5t46.5 -29.5q40 0 51.5 32.5t11.5 153.5v1193h421v-33q32 29 38 70h-68v222
h238l1 -50q0 -114 -19.5 -188.5t-77.5 -123.5q-47 -41 -112 -60z" />
    <glyph glyph-name="uni1EEC" unicode="&#x1eec;" horiz-adv-x="1120" 
d="M519 1688v32q0 34 74 114q17 16 26 35t9 39q0 26 -7 36q-5 9 -31 11q-53 0 -53 -55v-39h-110v47q0 53 41 96q46 46 127 46q69 0 113 -34t44 -102q0 -61 -67 -116q-68 -55 -68 -110h-98zM1041 1456v-919q0 -184 -12 -258.5t-71 -153t-155.5 -119t-227.5 -40.5
q-145 0 -256 48t-166 125t-65 162.5t-10 359.5v958h421v-1214q0 -106 11.5 -135.5t46.5 -29.5q40 0 51.5 32.5t11.5 153.5v1193h421v-33q32 29 38 70h-68v222h238l1 -50q0 -114 -19.5 -188.5t-77.5 -123.5q-47 -41 -112 -60z" />
    <glyph glyph-name="uni1EEE" unicode="&#x1eee;" horiz-adv-x="1120" 
d="M794 1902l54 -119q-16 -18 -38 -38q-11 -10 -32 -27q-39 -26 -85 -26l-37 3l-37 11l-43 19l-73 29l-28 5l-29 1q-32 0 -60 -23q-17 -14 -36 -49l-40 127q9 16 20 30q11 12 30 28q40 26 91 26q11 0 25 -1q15 -3 37 -9l34 -9l30 -13l64 -25q28 -11 52 -11q36 0 69 33z
M1041 1456v-919q0 -184 -12 -258.5t-71 -153t-155.5 -119t-227.5 -40.5q-145 0 -256 48t-166 125t-65 162.5t-10 359.5v958h421v-1214q0 -106 11.5 -135.5t46.5 -29.5q40 0 51.5 32.5t11.5 153.5v1193h421v-33q32 29 38 70h-68v222h238l1 -50q0 -114 -19.5 -188.5
t-77.5 -123.5q-47 -41 -112 -60z" />
    <glyph glyph-name="uni1EF0" unicode="&#x1ef0;" horiz-adv-x="1120" 
d="M672 -123v-214h-224v214h224zM1041 1456v-919q0 -184 -12 -258.5t-71 -153t-155.5 -119t-227.5 -40.5q-145 0 -256 48t-166 125t-65 162.5t-10 359.5v958h421v-1214q0 -106 11.5 -135.5t46.5 -29.5q40 0 51.5 32.5t11.5 153.5v1193h421v-33q32 29 38 70h-68v222h238
l1 -50q0 -114 -19.5 -188.5t-77.5 -123.5q-47 -41 -112 -60z" />
    <glyph glyph-name="Ohorn" unicode="&#x1a0;" horiz-adv-x="1119" 
d="M625 1203q0 113 -12.5 144.5t-51.5 31.5q-33 0 -50.5 -25.5t-17.5 -150.5v-756q0 -141 11.5 -174t53.5 -33q43 0 55 38t12 181v744zM959 1483q63 -85 75 -185t12 -350v-277q0 -244 -11.5 -345.5t-72 -185.5t-163.5 -129t-240 -45q-130 0 -233.5 42.5t-166.5 127.5
t-75 185t-12 350v277q0 244 11.5 345.5t72 185.5t163.5 129t240 45q130 0 234 -42q41 -18 77 -42q53 33 61 87h-68v222h238l1 -50q0 -114 -19.5 -188.5t-77.5 -123.5q-21 -19 -46 -33z" />
    <glyph glyph-name="uni1EDC" unicode="&#x1edc;" horiz-adv-x="1119" 
d="M625 1203q0 113 -12.5 144.5t-51.5 31.5q-33 0 -50.5 -25.5t-17.5 -150.5v-756q0 -141 11.5 -174t53.5 -33q43 0 55 38t12 181v744zM959 1483q63 -85 75 -185t12 -350v-277q0 -244 -11.5 -345.5t-72 -185.5t-163.5 -129t-240 -45q-130 0 -233.5 42.5t-166.5 127.5
t-75 185t-12 350v277q0 244 11.5 345.5t72 185.5t163.5 129t240 45q130 0 234 -42q41 -18 77 -42q53 33 61 87h-68v222h238l1 -50q0 -114 -19.5 -188.5t-77.5 -123.5q-21 -19 -46 -33zM530 1926l135 -208h-156l-252 208h273z" />
    <glyph glyph-name="uni1EDA" unicode="&#x1eda;" horiz-adv-x="1119" 
d="M625 1203q0 113 -12.5 144.5t-51.5 31.5q-33 0 -50.5 -25.5t-17.5 -150.5v-756q0 -141 11.5 -174t53.5 -33q43 0 55 38t12 181v744zM959 1483q63 -85 75 -185t12 -350v-277q0 -244 -11.5 -345.5t-72 -185.5t-163.5 -129t-240 -45q-130 0 -233.5 42.5t-166.5 127.5
t-75 185t-12 350v277q0 244 11.5 345.5t72 185.5t163.5 129t240 45q130 0 234 -42q41 -18 77 -42q53 33 61 87h-68v222h238l1 -50q0 -114 -19.5 -188.5t-77.5 -123.5q-21 -19 -46 -33zM874 1926l-252 -208h-156l135 208h273z" />
    <glyph glyph-name="uni1EDE" unicode="&#x1ede;" horiz-adv-x="1119" 
d="M625 1203q0 113 -12.5 144.5t-51.5 31.5q-33 0 -50.5 -25.5t-17.5 -150.5v-756q0 -141 11.5 -174t53.5 -33q43 0 55 38t12 181v744zM959 1483q63 -85 75 -185t12 -350v-277q0 -244 -11.5 -345.5t-72 -185.5t-163.5 -129t-240 -45q-130 0 -233.5 42.5t-166.5 127.5
t-75 185t-12 350v277q0 244 11.5 345.5t72 185.5t163.5 129t240 45q130 0 234 -42q41 -18 77 -42q53 33 61 87h-68v222h238l1 -50q0 -114 -19.5 -188.5t-77.5 -123.5q-21 -19 -46 -33zM520 1688v32q0 34 74 114q17 16 26 35t9 39q0 26 -7 36q-5 9 -31 11q-53 0 -53 -55v-39
h-110v47q0 53 41 96q46 46 127 46q69 0 113 -34t44 -102q0 -61 -67 -116q-68 -55 -68 -110h-98z" />
    <glyph glyph-name="uni1EE0" unicode="&#x1ee0;" horiz-adv-x="1119" 
d="M625 1203q0 113 -12.5 144.5t-51.5 31.5q-33 0 -50.5 -25.5t-17.5 -150.5v-756q0 -141 11.5 -174t53.5 -33q43 0 55 38t12 181v744zM959 1483q63 -85 75 -185t12 -350v-277q0 -244 -11.5 -345.5t-72 -185.5t-163.5 -129t-240 -45q-130 0 -233.5 42.5t-166.5 127.5
t-75 185t-12 350v277q0 244 11.5 345.5t72 185.5t163.5 129t240 45q130 0 234 -42q41 -18 77 -42q53 33 61 87h-68v222h238l1 -50q0 -114 -19.5 -188.5t-77.5 -123.5q-21 -19 -46 -33zM794 1902l54 -119q-16 -18 -38 -38q-11 -10 -32 -27q-39 -26 -85 -26l-37 3l-37 11
l-43 19l-73 29l-28 5l-29 1q-32 0 -60 -23q-17 -14 -36 -49l-40 127q9 16 20 30q11 12 30 28q40 26 91 26q11 0 25 -1q15 -3 37 -9l34 -9l30 -13l64 -25q28 -11 52 -11q36 0 69 33z" />
    <glyph glyph-name="uni1EE2" unicode="&#x1ee2;" horiz-adv-x="1119" 
d="M625 1203q0 113 -12.5 144.5t-51.5 31.5q-33 0 -50.5 -25.5t-17.5 -150.5v-756q0 -141 11.5 -174t53.5 -33q43 0 55 38t12 181v744zM959 1483q63 -85 75 -185t12 -350v-277q0 -244 -11.5 -345.5t-72 -185.5t-163.5 -129t-240 -45q-130 0 -233.5 42.5t-166.5 127.5
t-75 185t-12 350v277q0 244 11.5 345.5t72 185.5t163.5 129t240 45q130 0 234 -42q41 -18 77 -42q53 33 61 87h-68v222h238l1 -50q0 -114 -19.5 -188.5t-77.5 -123.5q-21 -19 -46 -33zM671 -123v-214h-224v214h224z" />
    <glyph glyph-name="Ygrave" unicode="&#x1ef2;" horiz-adv-x="969" 
d="M981 1619l-307 -1033v-586h-390v586l-296 1033h387q91 -473 102 -637q35 259 117 637h387zM432 1896l135 -208h-156l-252 208h273z" />
    <glyph glyph-name="Yacute" unicode="&#xdd;" horiz-adv-x="969" 
d="M981 1619l-307 -1033v-586h-390v586l-296 1033h387q91 -473 102 -637q35 259 117 637h387zM815 1896l-252 -208h-156l135 208h273z" />
    <glyph glyph-name="uni1EF6" unicode="&#x1ef6;" horiz-adv-x="969" 
d="M981 1619l-307 -1033v-586h-390v586l-296 1033h387q91 -473 102 -637q35 259 117 637h387zM440 1688v32q0 34 74 114q17 16 26 35t9 39q0 26 -7 36q-5 9 -31 11q-53 0 -53 -55v-39h-110v47q0 53 41 96q46 46 127 46q69 0 113 -34t44 -102q0 -61 -67 -116
q-68 -55 -68 -110h-98z" />
    <glyph glyph-name="uni1EF8" unicode="&#x1ef8;" horiz-adv-x="969" 
d="M981 1619l-307 -1033v-586h-390v586l-296 1033h387q91 -473 102 -637q35 259 117 637h387zM735 1902l54 -119q-16 -18 -38 -38q-11 -10 -32 -27q-39 -26 -85 -26l-37 3l-37 11l-43 19l-73 29l-28 5l-29 1q-32 0 -60 -23q-17 -14 -36 -49l-40 127q9 16 20 30q11 12 30 28
q40 26 91 26q11 0 25 -1q15 -3 37 -9l34 -9l30 -13l64 -25q28 -11 52 -11q36 0 69 33z" />
    <glyph glyph-name="uni1EF4" unicode="&#x1ef4;" horiz-adv-x="969" 
d="M981 1619l-307 -1033v-586h-390v586l-296 1033h387q91 -473 102 -637q35 259 117 637h387zM583 -123v-214h-224v214h224z" />
    <glyph glyph-name="agrave" unicode="&#xe0;" horiz-adv-x="1032" 
d="M433 813h-379v89q0 154 35.5 237.5t142.5 147.5t278 64q205 0 309 -72.5t125 -178t21 -434.5v-666h-393v118q-37 -71 -95.5 -106.5t-139.5 -35.5q-106 0 -194.5 59.5t-88.5 260.5v109q0 149 47 203t233 126q199 78 213 105t14 110q0 104 -15.5 135.5t-51.5 31.5
q-41 0 -51 -26.5t-10 -137.5v-139zM561 631q-97 -71 -112.5 -119t-15.5 -138q0 -103 13.5 -133t53.5 -30q38 0 49.5 23.5t11.5 123.5v273zM491 1645l135 -208h-156l-252 208h273z" />
    <glyph glyph-name="aacute" unicode="&#xe1;" horiz-adv-x="1032" 
d="M433 813h-379v89q0 154 35.5 237.5t142.5 147.5t278 64q205 0 309 -72.5t125 -178t21 -434.5v-666h-393v118q-37 -71 -95.5 -106.5t-139.5 -35.5q-106 0 -194.5 59.5t-88.5 260.5v109q0 149 47 203t233 126q199 78 213 105t14 110q0 104 -15.5 135.5t-51.5 31.5
q-41 0 -51 -26.5t-10 -137.5v-139zM561 631q-97 -71 -112.5 -119t-15.5 -138q0 -103 13.5 -133t53.5 -30q38 0 49.5 23.5t11.5 123.5v273zM834 1645l-252 -208h-156l135 208h273z" />
    <glyph glyph-name="uni1EA3" unicode="&#x1ea3;" horiz-adv-x="1032" 
d="M433 813h-379v89q0 154 35.5 237.5t142.5 147.5t278 64q205 0 309 -72.5t125 -178t21 -434.5v-666h-393v118q-37 -71 -95.5 -106.5t-139.5 -35.5q-106 0 -194.5 59.5t-88.5 260.5v109q0 149 47 203t233 126q199 78 213 105t14 110q0 104 -15.5 135.5t-51.5 31.5
q-41 0 -51 -26.5t-10 -137.5v-139zM561 631q-97 -71 -112.5 -119t-15.5 -138q0 -103 13.5 -133t53.5 -30q38 0 49.5 23.5t11.5 123.5v273zM459 1441v32q0 34 74 114q17 16 26.5 35t9.5 39q0 26 -8 36q-5 9 -31 11q-53 0 -53 -55v-39h-110v47q0 53 41 96q47 46 127 46
q69 0 113 -34t44 -102q0 -61 -66 -116q-68 -55 -68 -110h-99z" />
    <glyph glyph-name="atilde" unicode="&#xe3;" horiz-adv-x="1032" 
d="M433 813h-379v89q0 154 35.5 237.5t142.5 147.5t278 64q205 0 309 -72.5t125 -178t21 -434.5v-666h-393v118q-37 -71 -95.5 -106.5t-139.5 -35.5q-106 0 -194.5 59.5t-88.5 260.5v109q0 149 47 203t233 126q199 78 213 105t14 110q0 104 -15.5 135.5t-51.5 31.5
q-41 0 -51 -26.5t-10 -137.5v-139zM561 631q-97 -71 -112.5 -119t-15.5 -138q0 -103 13.5 -133t53.5 -30q38 0 49.5 23.5t11.5 123.5v273zM732 1626l53 -119q-16 -18 -37 -38q-11 -10 -33 -27q-39 -26 -84 -26l-38 3l-37 11l-43 19l-73 29l-28 5l-28 1q-33 0 -61 -23
q-16 -14 -35 -49l-41 127q10 16 21 30q11 12 29 28q41 26 91 26q12 0 26 -1q15 -3 36 -9l35 -9l30 -13l63 -25q28 -11 53 -11q36 0 68 33z" />
    <glyph glyph-name="uni1EA1" unicode="&#x1ea1;" horiz-adv-x="1032" 
d="M433 813h-379v89q0 154 35.5 237.5t142.5 147.5t278 64q205 0 309 -72.5t125 -178t21 -434.5v-666h-393v118q-37 -71 -95.5 -106.5t-139.5 -35.5q-106 0 -194.5 59.5t-88.5 260.5v109q0 149 47 203t233 126q199 78 213 105t14 110q0 104 -15.5 135.5t-51.5 31.5
q-41 0 -51 -26.5t-10 -137.5v-139zM561 631q-97 -71 -112.5 -119t-15.5 -138q0 -103 13.5 -133t53.5 -30q38 0 49.5 23.5t11.5 123.5v273zM638 -123v-214h-224v214h224z" />
    <glyph glyph-name="acircumflex" unicode="&#xe2;" horiz-adv-x="1032" 
d="M433 813h-379v89q0 154 35.5 237.5t142.5 147.5t278 64q205 0 309 -72.5t125 -178t21 -434.5v-666h-393v118q-37 -71 -95.5 -106.5t-139.5 -35.5q-106 0 -194.5 59.5t-88.5 260.5v109q0 149 47 203t233 126q199 78 213 105t14 110q0 104 -15.5 135.5t-51.5 31.5
q-41 0 -51 -26.5t-10 -137.5v-139zM561 631q-97 -71 -112.5 -119t-15.5 -138q0 -103 13.5 -133t53.5 -30q38 0 49.5 23.5t11.5 123.5v273zM499 1517l-80 -112h-189l174 242h190l163 -242h-183z" />
    <glyph glyph-name="uni1EA7" unicode="&#x1ea7;" horiz-adv-x="1032" 
d="M433 813h-379v89q0 154 35.5 237.5t142.5 147.5t278 64q205 0 309 -72.5t125 -178t21 -434.5v-666h-393v118q-37 -71 -95.5 -106.5t-139.5 -35.5q-106 0 -194.5 59.5t-88.5 260.5v109q0 149 47 203t233 126q199 78 213 105t14 110q0 104 -15.5 135.5t-51.5 31.5
q-41 0 -51 -26.5t-10 -137.5v-139zM561 631q-97 -71 -112.5 -119t-15.5 -138q0 -103 13.5 -133t53.5 -30q38 0 49.5 23.5t11.5 123.5v273zM499 1517l-80 -112h-189l174 242h190l163 -242h-183zM431 1893l135 -208h-156l-252 208h273z" />
    <glyph glyph-name="uni1EA5" unicode="&#x1ea5;" horiz-adv-x="1032" 
d="M433 813h-379v89q0 154 35.5 237.5t142.5 147.5t278 64q205 0 309 -72.5t125 -178t21 -434.5v-666h-393v118q-37 -71 -95.5 -106.5t-139.5 -35.5q-106 0 -194.5 59.5t-88.5 260.5v109q0 149 47 203t233 126q199 78 213 105t14 110q0 104 -15.5 135.5t-51.5 31.5
q-41 0 -51 -26.5t-10 -137.5v-139zM561 631q-97 -71 -112.5 -119t-15.5 -138q0 -103 13.5 -133t53.5 -30q38 0 49.5 23.5t11.5 123.5v273zM499 1517l-80 -112h-189l174 242h190l163 -242h-183zM844 1893l-252 -208h-156l135 208h273z" />
    <glyph glyph-name="uni1EA9" unicode="&#x1ea9;" horiz-adv-x="1032" 
d="M433 813h-379v89q0 154 35.5 237.5t142.5 147.5t278 64q205 0 309 -72.5t125 -178t21 -434.5v-666h-393v118q-37 -71 -95.5 -106.5t-139.5 -35.5q-106 0 -194.5 59.5t-88.5 260.5v109q0 149 47 203t233 126q199 78 213 105t14 110q0 104 -15.5 135.5t-51.5 31.5
q-41 0 -51 -26.5t-10 -137.5v-139zM561 631q-97 -71 -112.5 -119t-15.5 -138q0 -103 13.5 -133t53.5 -30q38 0 49.5 23.5t11.5 123.5v273zM499 1517l-80 -112h-189l174 242h190l163 -242h-183zM669 1600v32q0 34 74 114q17 16 26.5 35t9.5 39q0 26 -8 36q-5 9 -31 11
q-53 0 -53 -55v-39h-110v47q0 53 41 96q47 46 127 46q69 0 113 -34t44 -102q0 -61 -66 -116q-68 -55 -68 -110h-99z" />
    <glyph glyph-name="uni1EAB" unicode="&#x1eab;" horiz-adv-x="1032" 
d="M433 813h-379v89q0 154 35.5 237.5t142.5 147.5t278 64q205 0 309 -72.5t125 -178t21 -434.5v-666h-393v118q-37 -71 -95.5 -106.5t-139.5 -35.5q-106 0 -194.5 59.5t-88.5 260.5v109q0 149 47 203t233 126q199 78 213 105t14 110q0 104 -15.5 135.5t-51.5 31.5
q-41 0 -51 -26.5t-10 -137.5v-139zM561 631q-97 -71 -112.5 -119t-15.5 -138q0 -103 13.5 -133t53.5 -30q38 0 49.5 23.5t11.5 123.5v273zM499 1517l-80 -112h-189l174 242h190l163 -242h-183zM761 1886l53 -119q-16 -18 -37 -38q-11 -10 -33 -27q-39 -26 -84 -26l-38 3
l-37 11l-43 19l-73 29l-28 5l-28 1q-33 0 -61 -23q-16 -14 -35 -49l-41 127q10 16 21 30q11 12 29 28q41 26 91 26q12 0 26 -1q15 -3 36 -9l35 -9l30 -13l63 -25q28 -11 53 -11q36 0 68 33z" />
    <glyph glyph-name="uni1EAD" unicode="&#x1ead;" horiz-adv-x="1032" 
d="M433 813h-379v89q0 154 35.5 237.5t142.5 147.5t278 64q205 0 309 -72.5t125 -178t21 -434.5v-666h-393v118q-37 -71 -95.5 -106.5t-139.5 -35.5q-106 0 -194.5 59.5t-88.5 260.5v109q0 149 47 203t233 126q199 78 213 105t14 110q0 104 -15.5 135.5t-51.5 31.5
q-41 0 -51 -26.5t-10 -137.5v-139zM561 631q-97 -71 -112.5 -119t-15.5 -138q0 -103 13.5 -133t53.5 -30q38 0 49.5 23.5t11.5 123.5v273zM499 1517l-80 -112h-189l174 242h190l163 -242h-183zM638 -123v-214h-224v214h224z" />
    <glyph glyph-name="abreve" unicode="&#x103;" horiz-adv-x="1032" 
d="M433 813h-379v89q0 154 35.5 237.5t142.5 147.5t278 64q205 0 309 -72.5t125 -178t21 -434.5v-666h-393v118q-37 -71 -95.5 -106.5t-139.5 -35.5q-106 0 -194.5 59.5t-88.5 260.5v109q0 149 47 203t233 126q199 78 213 105t14 110q0 104 -15.5 135.5t-51.5 31.5
q-41 0 -51 -26.5t-10 -137.5v-139zM561 631q-97 -71 -112.5 -119t-15.5 -138q0 -103 13.5 -133t53.5 -30q38 0 49.5 23.5t11.5 123.5v273zM384 1639q0 -50 34 -79q34 -26 92 -26q59 0 88 22q27 23 37 83h130q0 -115 -70 -174.5t-185 -59.5q-121 0 -188 56q-68 56 -68 178
h130z" />
    <glyph glyph-name="uni1EB1" unicode="&#x1eb1;" horiz-adv-x="1032" 
d="M433 813h-379v89q0 154 35.5 237.5t142.5 147.5t278 64q205 0 309 -72.5t125 -178t21 -434.5v-666h-393v118q-37 -71 -95.5 -106.5t-139.5 -35.5q-106 0 -194.5 59.5t-88.5 260.5v109q0 149 47 203t233 126q199 78 213 105t14 110q0 104 -15.5 135.5t-51.5 31.5
q-41 0 -51 -26.5t-10 -137.5v-139zM561 631q-97 -71 -112.5 -119t-15.5 -138q0 -103 13.5 -133t53.5 -30q38 0 49.5 23.5t11.5 123.5v273zM384 1639q0 -50 34 -79q34 -26 92 -26q59 0 88 22q27 23 37 83h130q0 -115 -70 -174.5t-185 -59.5q-121 0 -188 56q-68 56 -68 178
h130zM481 1845l135 -208h-156l-252 208h273z" />
    <glyph glyph-name="uni1EAF" unicode="&#x1eaf;" horiz-adv-x="1032" 
d="M433 813h-379v89q0 154 35.5 237.5t142.5 147.5t278 64q205 0 309 -72.5t125 -178t21 -434.5v-666h-393v118q-37 -71 -95.5 -106.5t-139.5 -35.5q-106 0 -194.5 59.5t-88.5 260.5v109q0 149 47 203t233 126q199 78 213 105t14 110q0 104 -15.5 135.5t-51.5 31.5
q-41 0 -51 -26.5t-10 -137.5v-139zM561 631q-97 -71 -112.5 -119t-15.5 -138q0 -103 13.5 -133t53.5 -30q38 0 49.5 23.5t11.5 123.5v273zM384 1639q0 -50 34 -79q34 -26 92 -26q59 0 88 22q27 23 37 83h130q0 -115 -70 -174.5t-185 -59.5q-121 0 -188 56q-68 56 -68 178
h130zM826 1845l-252 -208h-156l135 208h273z" />
    <glyph glyph-name="uni1EB3" unicode="&#x1eb3;" horiz-adv-x="1032" 
d="M433 813h-379v89q0 154 35.5 237.5t142.5 147.5t278 64q205 0 309 -72.5t125 -178t21 -434.5v-666h-393v118q-37 -71 -95.5 -106.5t-139.5 -35.5q-106 0 -194.5 59.5t-88.5 260.5v109q0 149 47 203t233 126q199 78 213 105t14 110q0 104 -15.5 135.5t-51.5 31.5
q-41 0 -51 -26.5t-10 -137.5v-139zM561 631q-97 -71 -112.5 -119t-15.5 -138q0 -103 13.5 -133t53.5 -30q38 0 49.5 23.5t11.5 123.5v273zM384 1639q0 -50 34 -79q34 -26 92 -26q59 0 88 22q27 23 37 83h130q0 -115 -70 -174.5t-185 -59.5q-121 0 -188 56q-68 56 -68 178
h130zM459 1620v32q0 34 74 114q17 16 26.5 35t9.5 39q0 26 -8 36q-5 9 -31 11q-53 0 -53 -55v-39h-110v47q0 53 41 96q47 46 127 46q69 0 113 -34t44 -102q0 -61 -66 -116q-68 -55 -68 -110h-99z" />
    <glyph glyph-name="uni1EB5" unicode="&#x1eb5;" horiz-adv-x="1032" 
d="M433 813h-379v89q0 154 35.5 237.5t142.5 147.5t278 64q205 0 309 -72.5t125 -178t21 -434.5v-666h-393v118q-37 -71 -95.5 -106.5t-139.5 -35.5q-106 0 -194.5 59.5t-88.5 260.5v109q0 149 47 203t233 126q199 78 213 105t14 110q0 104 -15.5 135.5t-51.5 31.5
q-41 0 -51 -26.5t-10 -137.5v-139zM561 631q-97 -71 -112.5 -119t-15.5 -138q0 -103 13.5 -133t53.5 -30q38 0 49.5 23.5t11.5 123.5v273zM384 1639q0 -50 34 -79q34 -26 92 -26q59 0 88 22q27 23 37 83h130q0 -115 -70 -174.5t-185 -59.5q-121 0 -188 56q-68 56 -68 178
h130zM742 1886l53 -119q-16 -18 -37 -38q-11 -10 -33 -27q-39 -26 -84 -26l-38 3l-37 11l-43 19l-73 29l-28 5l-28 1q-33 0 -61 -23q-16 -14 -35 -49l-41 127q10 16 21 30q11 12 29 28q41 26 91 26q12 0 26 -1q15 -3 36 -9l35 -9l30 -13l63 -25q28 -11 53 -11q36 0 68 33z
" />
    <glyph glyph-name="uni1EB7" unicode="&#x1eb7;" horiz-adv-x="1032" 
d="M433 813h-379v89q0 154 35.5 237.5t142.5 147.5t278 64q205 0 309 -72.5t125 -178t21 -434.5v-666h-393v118q-37 -71 -95.5 -106.5t-139.5 -35.5q-106 0 -194.5 59.5t-88.5 260.5v109q0 149 47 203t233 126q199 78 213 105t14 110q0 104 -15.5 135.5t-51.5 31.5
q-41 0 -51 -26.5t-10 -137.5v-139zM561 631q-97 -71 -112.5 -119t-15.5 -138q0 -103 13.5 -133t53.5 -30q38 0 49.5 23.5t11.5 123.5v273zM384 1639q0 -50 34 -79q34 -26 92 -26q59 0 88 22q27 23 37 83h130q0 -115 -70 -174.5t-185 -59.5q-121 0 -188 56q-68 56 -68 178
h130zM638 -123v-214h-224v214h224z" />
    <glyph glyph-name="egrave" unicode="&#xe8;" 
d="M987 640h-523v-287q0 -90 13 -116t50 -26q46 0 61.5 34.5t15.5 133.5v175h383v-98q0 -123 -15.5 -189t-72.5 -141t-144.5 -112.5t-219.5 -37.5q-128 0 -226 37t-152.5 101.5t-75.5 142t-21 225.5v387q0 174 47 274.5t154 154t246 53.5q170 0 280.5 -64.5t155 -171
t44.5 -299.5v-176zM582 856v97q0 103 -11 133t-45 30q-42 0 -52 -25.5t-10 -137.5v-97h118zM491 1645l135 -208h-156l-252 208h273z" />
    <glyph glyph-name="eacute" unicode="&#xe9;" 
d="M987 640h-523v-287q0 -90 13 -116t50 -26q46 0 61.5 34.5t15.5 133.5v175h383v-98q0 -123 -15.5 -189t-72.5 -141t-144.5 -112.5t-219.5 -37.5q-128 0 -226 37t-152.5 101.5t-75.5 142t-21 225.5v387q0 174 47 274.5t154 154t246 53.5q170 0 280.5 -64.5t155 -171
t44.5 -299.5v-176zM582 856v97q0 103 -11 133t-45 30q-42 0 -52 -25.5t-10 -137.5v-97h118zM854 1645l-252 -208h-156l135 208h273z" />
    <glyph glyph-name="uni1EBB" unicode="&#x1ebb;" 
d="M987 640h-523v-287q0 -90 13 -116t50 -26q46 0 61.5 34.5t15.5 133.5v175h383v-98q0 -123 -15.5 -189t-72.5 -141t-144.5 -112.5t-219.5 -37.5q-128 0 -226 37t-152.5 101.5t-75.5 142t-21 225.5v387q0 174 47 274.5t154 154t246 53.5q170 0 280.5 -64.5t155 -171
t44.5 -299.5v-176zM582 856v97q0 103 -11 133t-45 30q-42 0 -52 -25.5t-10 -137.5v-97h118zM479 1441v32q0 34 74 114q17 16 26.5 35t9.5 39q0 26 -8 36q-5 9 -31 11q-53 0 -53 -55v-39h-110v47q0 53 41 96q47 46 127 46q69 0 113 -34t44 -102q0 -61 -66 -116
q-68 -55 -68 -110h-99z" />
    <glyph glyph-name="uni1EBD" unicode="&#x1ebd;" 
d="M987 640h-523v-287q0 -90 13 -116t50 -26q46 0 61.5 34.5t15.5 133.5v175h383v-98q0 -123 -15.5 -189t-72.5 -141t-144.5 -112.5t-219.5 -37.5q-128 0 -226 37t-152.5 101.5t-75.5 142t-21 225.5v387q0 174 47 274.5t154 154t246 53.5q170 0 280.5 -64.5t155 -171
t44.5 -299.5v-176zM582 856v97q0 103 -11 133t-45 30q-42 0 -52 -25.5t-10 -137.5v-97h118zM732 1626l53 -119q-16 -18 -37 -38q-11 -10 -33 -27q-39 -26 -84 -26l-38 3l-37 11l-43 19l-73 29l-28 5l-28 1q-33 0 -61 -23q-16 -14 -35 -49l-41 127q10 16 21 30q11 12 29 28
q41 26 91 26q12 0 26 -1q15 -3 36 -9l35 -9l30 -13l63 -25q28 -11 53 -11q36 0 68 33z" />
    <glyph glyph-name="uni1EB9" unicode="&#x1eb9;" 
d="M987 640h-523v-287q0 -90 13 -116t50 -26q46 0 61.5 34.5t15.5 133.5v175h383v-98q0 -123 -15.5 -189t-72.5 -141t-144.5 -112.5t-219.5 -37.5q-128 0 -226 37t-152.5 101.5t-75.5 142t-21 225.5v387q0 174 47 274.5t154 154t246 53.5q170 0 280.5 -64.5t155 -171
t44.5 -299.5v-176zM582 856v97q0 103 -11 133t-45 30q-42 0 -52 -25.5t-10 -137.5v-97h118zM638 -123v-214h-224v214h224z" />
    <glyph glyph-name="ecircumflex" unicode="&#xea;" 
d="M987 640h-523v-287q0 -90 13 -116t50 -26q46 0 61.5 34.5t15.5 133.5v175h383v-98q0 -123 -15.5 -189t-72.5 -141t-144.5 -112.5t-219.5 -37.5q-128 0 -226 37t-152.5 101.5t-75.5 142t-21 225.5v387q0 174 47 274.5t154 154t246 53.5q170 0 280.5 -64.5t155 -171
t44.5 -299.5v-176zM582 856v97q0 103 -11 133t-45 30q-42 0 -52 -25.5t-10 -137.5v-97h118zM529 1517l-80 -112h-189l174 242h190l163 -242h-183z" />
    <glyph glyph-name="uni1EC1" unicode="&#x1ec1;" 
d="M987 640h-523v-287q0 -90 13 -116t50 -26q46 0 61.5 34.5t15.5 133.5v175h383v-98q0 -123 -15.5 -189t-72.5 -141t-144.5 -112.5t-219.5 -37.5q-128 0 -226 37t-152.5 101.5t-75.5 142t-21 225.5v387q0 174 47 274.5t154 154t246 53.5q170 0 280.5 -64.5t155 -171
t44.5 -299.5v-176zM582 856v97q0 103 -11 133t-45 30q-42 0 -52 -25.5t-10 -137.5v-97h118zM529 1517l-80 -112h-189l174 242h190l163 -242h-183zM461 1893l135 -208h-156l-252 208h273z" />
    <glyph glyph-name="uni1EBF" unicode="&#x1ebf;" 
d="M987 640h-523v-287q0 -90 13 -116t50 -26q46 0 61.5 34.5t15.5 133.5v175h383v-98q0 -123 -15.5 -189t-72.5 -141t-144.5 -112.5t-219.5 -37.5q-128 0 -226 37t-152.5 101.5t-75.5 142t-21 225.5v387q0 174 47 274.5t154 154t246 53.5q170 0 280.5 -64.5t155 -171
t44.5 -299.5v-176zM582 856v97q0 103 -11 133t-45 30q-42 0 -52 -25.5t-10 -137.5v-97h118zM529 1517l-80 -112h-189l174 242h190l163 -242h-183zM864 1893l-252 -208h-156l135 208h273z" />
    <glyph glyph-name="uni1EC3" unicode="&#x1ec3;" 
d="M987 640h-523v-287q0 -90 13 -116t50 -26q46 0 61.5 34.5t15.5 133.5v175h383v-98q0 -123 -15.5 -189t-72.5 -141t-144.5 -112.5t-219.5 -37.5q-128 0 -226 37t-152.5 101.5t-75.5 142t-21 225.5v387q0 174 47 274.5t154 154t246 53.5q170 0 280.5 -64.5t155 -171
t44.5 -299.5v-176zM582 856v97q0 103 -11 133t-45 30q-42 0 -52 -25.5t-10 -137.5v-97h118zM529 1517l-80 -112h-189l174 242h190l163 -242h-183zM699 1600v32q0 34 74 114q17 16 26.5 35t9.5 39q0 26 -8 36q-5 9 -31 11q-53 0 -53 -55v-39h-110v47q0 53 41 96q47 46 127 46
q69 0 113 -34t44 -102q0 -61 -66 -116q-68 -55 -68 -110h-99z" />
    <glyph glyph-name="uni1EC5" unicode="&#x1ec5;" 
d="M987 640h-523v-287q0 -90 13 -116t50 -26q46 0 61.5 34.5t15.5 133.5v175h383v-98q0 -123 -15.5 -189t-72.5 -141t-144.5 -112.5t-219.5 -37.5q-128 0 -226 37t-152.5 101.5t-75.5 142t-21 225.5v387q0 174 47 274.5t154 154t246 53.5q170 0 280.5 -64.5t155 -171
t44.5 -299.5v-176zM582 856v97q0 103 -11 133t-45 30q-42 0 -52 -25.5t-10 -137.5v-97h118zM529 1517l-80 -112h-189l174 242h190l163 -242h-183zM791 1886l53 -119q-16 -18 -37 -38q-11 -10 -33 -27q-39 -26 -84 -26l-38 3l-37 11l-43 19l-73 29l-28 5l-28 1q-33 0 -61 -23
q-16 -14 -35 -49l-41 127q10 16 21 30q11 12 29 28q41 26 91 26q12 0 26 -1q15 -3 36 -9l35 -9l30 -13l63 -25q28 -11 53 -11q36 0 68 33z" />
    <glyph glyph-name="uni1EC7" unicode="&#x1ec7;" 
d="M987 640h-523v-287q0 -90 13 -116t50 -26q46 0 61.5 34.5t15.5 133.5v175h383v-98q0 -123 -15.5 -189t-72.5 -141t-144.5 -112.5t-219.5 -37.5q-128 0 -226 37t-152.5 101.5t-75.5 142t-21 225.5v387q0 174 47 274.5t154 154t246 53.5q170 0 280.5 -64.5t155 -171
t44.5 -299.5v-176zM582 856v97q0 103 -11 133t-45 30q-42 0 -52 -25.5t-10 -137.5v-97h118zM529 1517l-80 -112h-189l174 242h190l163 -242h-183zM638 -123v-214h-224v214h224z" />
    <glyph glyph-name="igrave" unicode="&#xec;" horiz-adv-x="561" 
d="M488 1327v-1327h-416v1327h416zM233 1645l135 -208h-156l-252 208h273z" />
    <glyph glyph-name="iacute" unicode="&#xed;" horiz-adv-x="561" 
d="M488 1327v-1327h-416v1327h416zM596 1645l-252 -208h-156l135 208h273z" />
    <glyph glyph-name="uni1EC9" unicode="&#x1ec9;" horiz-adv-x="561" 
d="M488 1327v-1327h-416v1327h416zM211 1405v32q0 34 74 114q17 16 26 35t9 39q0 26 -7 36q-5 9 -31 11q-53 0 -53 -55v-39h-110v47q0 53 41 96q46 46 127 46q69 0 113 -34t44 -102q0 -61 -67 -116q-68 -55 -68 -110h-98z" />
    <glyph glyph-name="itilde" unicode="&#x129;" horiz-adv-x="561" 
d="M486 1327v-1327h-416v1327h416zM494 1626l53 -119q-16 -18 -37 -38q-11 -10 -33 -27q-39 -26 -84 -26l-38 3l-37 11l-43 19l-73 29l-28 5l-28 1q-33 0 -61 -23q-16 -14 -35 -49l-41 127q10 16 21 30q11 12 29 28q41 26 91 26q12 0 26 -1q15 -3 36 -9l35 -9l30 -13l63 -25
q28 -11 53 -11q36 0 68 33z" />
    <glyph glyph-name="uni1ECB" unicode="&#x1ecb;" horiz-adv-x="561" 
d="M488 1619v-211h-416v211h416zM488 1327v-1327h-416v1327h416zM392 -123v-214h-224v214h224z" />
    <glyph glyph-name="ograve" unicode="&#xf2;" 
d="M986 861v-325q0 -179 -18 -262.5t-77 -156t-151.5 -107t-212.5 -34.5q-134 0 -227 29.5t-144.5 89t-73.5 144t-22 253.5v340q0 185 40 289t144 167t266 63q136 0 233.5 -40.5t150.5 -105.5t72.5 -134t19.5 -210zM582 961q0 102 -11 128.5t-47 26.5t-48 -26.5t-12 -128.5
v-599q0 -94 12 -122.5t47 -28.5q36 0 47.5 26t11.5 112v612zM491 1645l135 -208h-156l-252 208h273z" />
    <glyph glyph-name="oacute" unicode="&#xf3;" 
d="M986 861v-325q0 -179 -18 -262.5t-77 -156t-151.5 -107t-212.5 -34.5q-134 0 -227 29.5t-144.5 89t-73.5 144t-22 253.5v340q0 185 40 289t144 167t266 63q136 0 233.5 -40.5t150.5 -105.5t72.5 -134t19.5 -210zM582 961q0 102 -11 128.5t-47 26.5t-48 -26.5t-12 -128.5
v-599q0 -94 12 -122.5t47 -28.5q36 0 47.5 26t11.5 112v612zM854 1645l-252 -208h-156l135 208h273z" />
    <glyph glyph-name="uni1ECF" unicode="&#x1ecf;" 
d="M986 861v-325q0 -179 -18 -262.5t-77 -156t-151.5 -107t-212.5 -34.5q-134 0 -227 29.5t-144.5 89t-73.5 144t-22 253.5v340q0 185 40 289t144 167t266 63q136 0 233.5 -40.5t150.5 -105.5t72.5 -134t19.5 -210zM582 961q0 102 -11 128.5t-47 26.5t-48 -26.5t-12 -128.5
v-599q0 -94 12 -122.5t47 -28.5q36 0 47.5 26t11.5 112v612zM479 1405v32q0 34 74 114q17 16 26.5 35t9.5 39q0 26 -8 36q-5 9 -31 11q-53 0 -53 -55v-39h-110v47q0 53 41 96q47 46 127 46q69 0 113 -34t44 -102q0 -61 -66 -116q-68 -55 -68 -110h-99z" />
    <glyph glyph-name="otilde" unicode="&#xf5;" 
d="M986 861v-325q0 -179 -18 -262.5t-77 -156t-151.5 -107t-212.5 -34.5q-134 0 -227 29.5t-144.5 89t-73.5 144t-22 253.5v340q0 185 40 289t144 167t266 63q136 0 233.5 -40.5t150.5 -105.5t72.5 -134t19.5 -210zM582 961q0 102 -11 128.5t-47 26.5t-48 -26.5t-12 -128.5
v-599q0 -94 12 -122.5t47 -28.5q36 0 47.5 26t11.5 112v612zM732 1619l53 -119q-16 -18 -37 -38q-11 -10 -33 -27q-39 -26 -84 -26l-38 3l-37 11l-43 19l-73 29l-28 5l-28 1q-33 0 -61 -23q-16 -14 -35 -49l-41 127q10 16 21 30q11 12 29 28q41 26 91 26q12 0 26 -1
q15 -3 36 -9l35 -9l30 -13l63 -25q28 -11 53 -11q36 0 68 33z" />
    <glyph glyph-name="uni1ECD" unicode="&#x1ecd;" 
d="M986 861v-325q0 -179 -18 -262.5t-77 -156t-151.5 -107t-212.5 -34.5q-134 0 -227 29.5t-144.5 89t-73.5 144t-22 253.5v340q0 185 40 289t144 167t266 63q136 0 233.5 -40.5t150.5 -105.5t72.5 -134t19.5 -210zM582 961q0 102 -11 128.5t-47 26.5t-48 -26.5t-12 -128.5
v-599q0 -94 12 -122.5t47 -28.5q36 0 47.5 26t11.5 112v612zM635 -123v-214h-224v214h224z" />
    <glyph glyph-name="ocircumflex" unicode="&#xf4;" 
d="M986 861v-325q0 -179 -18 -262.5t-77 -156t-151.5 -107t-212.5 -34.5q-134 0 -227 29.5t-144.5 89t-73.5 144t-22 253.5v340q0 185 40 289t144 167t266 63q136 0 233.5 -40.5t150.5 -105.5t72.5 -134t19.5 -210zM582 961q0 102 -11 128.5t-47 26.5t-48 -26.5t-12 -128.5
v-599q0 -94 12 -122.5t47 -28.5q36 0 47.5 26t11.5 112v612zM529 1517l-80 -112h-189l174 242h190l163 -242h-183z" />
    <glyph glyph-name="uni1ED3" unicode="&#x1ed3;" 
d="M986 861v-325q0 -179 -18 -262.5t-77 -156t-151.5 -107t-212.5 -34.5q-134 0 -227 29.5t-144.5 89t-73.5 144t-22 253.5v340q0 185 40 289t144 167t266 63q136 0 233.5 -40.5t150.5 -105.5t72.5 -134t19.5 -210zM582 961q0 102 -11 128.5t-47 26.5t-48 -26.5t-12 -128.5
v-599q0 -94 12 -122.5t47 -28.5q36 0 47.5 26t11.5 112v612zM529 1517l-80 -112h-189l174 242h190l163 -242h-183zM461 1893l135 -208h-156l-252 208h273z" />
    <glyph glyph-name="uni1ED1" unicode="&#x1ed1;" 
d="M986 861v-325q0 -179 -18 -262.5t-77 -156t-151.5 -107t-212.5 -34.5q-134 0 -227 29.5t-144.5 89t-73.5 144t-22 253.5v340q0 185 40 289t144 167t266 63q136 0 233.5 -40.5t150.5 -105.5t72.5 -134t19.5 -210zM582 961q0 102 -11 128.5t-47 26.5t-48 -26.5t-12 -128.5
v-599q0 -94 12 -122.5t47 -28.5q36 0 47.5 26t11.5 112v612zM529 1517l-80 -112h-189l174 242h190l163 -242h-183zM864 1893l-252 -208h-156l135 208h273z" />
    <glyph glyph-name="uni1ED5" unicode="&#x1ed5;" 
d="M986 861v-325q0 -179 -18 -262.5t-77 -156t-151.5 -107t-212.5 -34.5q-134 0 -227 29.5t-144.5 89t-73.5 144t-22 253.5v340q0 185 40 289t144 167t266 63q136 0 233.5 -40.5t150.5 -105.5t72.5 -134t19.5 -210zM582 961q0 102 -11 128.5t-47 26.5t-48 -26.5t-12 -128.5
v-599q0 -94 12 -122.5t47 -28.5q36 0 47.5 26t11.5 112v612zM529 1517l-80 -112h-189l174 242h190l163 -242h-183zM699 1600v32q0 34 74 114q17 16 26.5 35t9.5 39q0 26 -8 36q-5 9 -31 11q-53 0 -53 -55v-39h-110v47q0 53 41 96q47 46 127 46q69 0 113 -34t44 -102
q0 -61 -66 -116q-68 -55 -68 -110h-99z" />
    <glyph glyph-name="uni1ED7" unicode="&#x1ed7;" 
d="M986 861v-325q0 -179 -18 -262.5t-77 -156t-151.5 -107t-212.5 -34.5q-134 0 -227 29.5t-144.5 89t-73.5 144t-22 253.5v340q0 185 40 289t144 167t266 63q136 0 233.5 -40.5t150.5 -105.5t72.5 -134t19.5 -210zM582 961q0 102 -11 128.5t-47 26.5t-48 -26.5t-12 -128.5
v-599q0 -94 12 -122.5t47 -28.5q36 0 47.5 26t11.5 112v612zM529 1517l-80 -112h-189l174 242h190l163 -242h-183zM791 1886l53 -119q-16 -18 -37 -38q-11 -10 -33 -27q-39 -26 -84 -26l-38 3l-37 11l-43 19l-73 29l-28 5l-28 1q-33 0 -61 -23q-16 -14 -35 -49l-41 127
q10 16 21 30q11 12 29 28q41 26 91 26q12 0 26 -1q15 -3 36 -9l35 -9l30 -13l63 -25q28 -11 53 -11q36 0 68 33z" />
    <glyph glyph-name="uni1ED9" unicode="&#x1ed9;" 
d="M986 861v-325q0 -179 -18 -262.5t-77 -156t-151.5 -107t-212.5 -34.5q-134 0 -227 29.5t-144.5 89t-73.5 144t-22 253.5v340q0 185 40 289t144 167t266 63q136 0 233.5 -40.5t150.5 -105.5t72.5 -134t19.5 -210zM582 961q0 102 -11 128.5t-47 26.5t-48 -26.5t-12 -128.5
v-599q0 -94 12 -122.5t47 -28.5q36 0 47.5 26t11.5 112v612zM529 1517l-80 -112h-189l174 242h190l163 -242h-183zM635 -123v-214h-224v214h224z" />
    <glyph glyph-name="glyph216" unicode="&#xf9;" horiz-adv-x="1070" 
d="M997 1327v-1327h-411l7 110q-42 -67 -103.5 -100.5t-141.5 -33.5q-91 0 -151 32t-88.5 85t-35.5 110.5t-7 228.5v895h404v-903q0 -155 9.5 -184t51.5 -29q45 0 53.5 30t8.5 193v893h404zM491 1645l135 -208h-156l-252 208h273z" />
    <glyph glyph-name="glyph217" unicode="&#xfa;" horiz-adv-x="1070" 
d="M997 1327v-1327h-411l7 110q-42 -67 -103.5 -100.5t-141.5 -33.5q-91 0 -151 32t-88.5 85t-35.5 110.5t-7 228.5v895h404v-903q0 -155 9.5 -184t51.5 -29q45 0 53.5 30t8.5 193v893h404zM854 1645l-252 -208h-156l135 208h273z" />
    <glyph glyph-name="uni1EE7" unicode="&#x1ee7;" horiz-adv-x="1070" 
d="M997 1327v-1327h-411l7 110q-42 -67 -103.5 -100.5t-141.5 -33.5q-91 0 -151 32t-88.5 85t-35.5 110.5t-7 228.5v895h404v-903q0 -155 9.5 -184t51.5 -29q45 0 53.5 30t8.5 193v893h404zM490 1405v32q0 34 74 114q17 16 26.5 35t9.5 39q0 26 -8 36q-5 9 -31 11
q-53 0 -53 -55v-39h-110v47q0 53 41 96q47 46 127 46q69 0 113 -34t44 -102q0 -61 -66 -116q-68 -55 -68 -110h-99z" />
    <glyph glyph-name="utilde" unicode="&#x169;" horiz-adv-x="1070" 
d="M997 1327v-1327h-411l7 110q-42 -67 -103.5 -100.5t-141.5 -33.5q-91 0 -151 32t-88.5 85t-35.5 110.5t-7 228.5v895h404v-903q0 -155 9.5 -184t51.5 -29q45 0 53.5 30t8.5 193v893h404zM747 1619l54 -119q-16 -18 -38 -38q-11 -10 -32 -27q-39 -26 -85 -26l-37 3l-37 11
l-43 19l-73 29l-28 5l-29 1q-32 0 -60 -23q-17 -14 -36 -49l-40 127q9 16 20 30q11 12 30 28q40 26 91 26q11 0 25 -1q15 -3 37 -9l34 -9l30 -13l64 -25q28 -11 52 -11q36 0 69 33z" />
    <glyph glyph-name="uni1EE5" unicode="&#x1ee5;" horiz-adv-x="1070" 
d="M997 1327v-1327h-411l7 110q-42 -67 -103.5 -100.5t-141.5 -33.5q-91 0 -151 32t-88.5 85t-35.5 110.5t-7 228.5v895h404v-903q0 -155 9.5 -184t51.5 -29q45 0 53.5 30t8.5 193v893h404zM644 -123v-214h-224v214h224z" />
    <glyph glyph-name="uhorn" unicode="&#x1b0;" horiz-adv-x="1070" 
d="M997 1153v-1153h-411l7 110q-42 -67 -103.5 -100.5t-141.5 -33.5q-91 0 -151 32t-88.5 85t-35.5 110.5t-7 228.5v895h404v-903q0 -155 9.5 -184t51.5 -29q45 0 53.5 30t8.5 193v893h404v-52q46 33 53 82h-68v222h238l1 -50q0 -114 -19.5 -188.5t-77.5 -123.5
q-53 -46 -127 -64z" />
    <glyph glyph-name="uni1EEB" unicode="&#x1eeb;" horiz-adv-x="1070" 
d="M501 1645l135 -208h-156l-252 208h273zM997 1153v-1153h-411l7 110q-42 -67 -103.5 -100.5t-141.5 -33.5q-91 0 -151 32t-88.5 85t-35.5 110.5t-7 228.5v895h404v-903q0 -155 9.5 -184t51.5 -29q45 0 53.5 30t8.5 193v893h404v-52q46 33 53 82h-68v222h238l1 -50
q0 -114 -19.5 -188.5t-77.5 -123.5q-53 -46 -127 -64z" />
    <glyph glyph-name="uni1EE9" unicode="&#x1ee9;" horiz-adv-x="1070" 
d="M874 1645l-252 -208h-156l135 208h273zM997 1153v-1153h-411l7 110q-42 -67 -103.5 -100.5t-141.5 -33.5q-91 0 -151 32t-88.5 85t-35.5 110.5t-7 228.5v895h404v-903q0 -155 9.5 -184t51.5 -29q45 0 53.5 30t8.5 193v893h404v-52q46 33 53 82h-68v222h238l1 -50
q0 -114 -19.5 -188.5t-77.5 -123.5q-53 -46 -127 -64z" />
    <glyph glyph-name="uni1EED" unicode="&#x1eed;" horiz-adv-x="1070" 
d="M490 1405v32q0 34 74 114q17 16 26.5 35t9.5 39q0 26 -8 36q-5 9 -31 11q-53 0 -53 -55v-39h-110v47q0 53 41 96q47 46 127 46q69 0 113 -34t44 -102q0 -61 -66 -116q-68 -55 -68 -110h-99zM997 1153v-1153h-411l7 110q-42 -67 -103.5 -100.5t-141.5 -33.5q-91 0 -151 32
t-88.5 85t-35.5 110.5t-7 228.5v895h404v-903q0 -155 9.5 -184t51.5 -29q45 0 53.5 30t8.5 193v893h404v-52q46 33 53 82h-68v222h238l1 -50q0 -114 -19.5 -188.5t-77.5 -123.5q-53 -46 -127 -64z" />
    <glyph glyph-name="uni1EEF" unicode="&#x1eef;" horiz-adv-x="1070" 
d="M747 1619l54 -119q-16 -18 -38 -38q-11 -10 -32 -27q-39 -26 -85 -26l-37 3l-37 11l-43 19l-73 29l-28 5l-29 1q-32 0 -60 -23q-17 -14 -36 -49l-40 127q9 16 20 30q11 12 30 28q40 26 91 26q11 0 25 -1q15 -3 37 -9l34 -9l30 -13l64 -25q28 -11 52 -11q36 0 69 33z
M997 1153v-1153h-411l7 110q-42 -67 -103.5 -100.5t-141.5 -33.5q-91 0 -151 32t-88.5 85t-35.5 110.5t-7 228.5v895h404v-903q0 -155 9.5 -184t51.5 -29q45 0 53.5 30t8.5 193v893h404v-52q46 33 53 82h-68v222h238l1 -50q0 -114 -19.5 -188.5t-77.5 -123.5
q-53 -46 -127 -64z" />
    <glyph glyph-name="uni1EF1" unicode="&#x1ef1;" horiz-adv-x="1070" 
d="M638 -123v-214h-224v214h224zM997 1153v-1153h-411l7 110q-42 -67 -103.5 -100.5t-141.5 -33.5q-91 0 -151 32t-88.5 85t-35.5 110.5t-7 228.5v895h404v-903q0 -155 9.5 -184t51.5 -29q45 0 53.5 30t8.5 193v893h404v-52q46 33 53 82h-68v222h238l1 -50
q0 -114 -19.5 -188.5t-77.5 -123.5q-53 -46 -127 -64z" />
    <glyph glyph-name="ohorn" unicode="&#x1a1;" 
d="M582 961q0 102 -11 128.5t-47 26.5t-48 -26.5t-12 -128.5v-599q0 -94 12 -122.5t47 -28.5q36 0 47.5 26t11.5 112v612zM910 1184q40 -55 57 -113q19 -69 19 -210v-325q0 -179 -18 -262.5t-77 -156t-151.5 -107t-212.5 -34.5q-134 0 -227 29.5t-144.5 89t-73.5 144
t-22 253.5v340q0 185 40 289t144 167t266 63q136 0 234 -40q42 -18 77 -41q53 33 61 87h-68v222h238l1 -50q0 -114 -19.5 -188.5t-77.5 -123.5q-21 -19 -46 -33z" />
    <glyph glyph-name="uni1EDD" unicode="&#x1edd;" 
d="M491 1645l135 -208h-156l-252 208h273zM582 961q0 102 -11 128.5t-47 26.5t-48 -26.5t-12 -128.5v-599q0 -94 12 -122.5t47 -28.5q36 0 47.5 26t11.5 112v612zM910 1184q40 -55 57 -113q19 -69 19 -210v-325q0 -179 -18 -262.5t-77 -156t-151.5 -107t-212.5 -34.5
q-134 0 -227 29.5t-144.5 89t-73.5 144t-22 253.5v340q0 185 40 289t144 167t266 63q136 0 234 -40q42 -18 77 -41q53 33 61 87h-68v222h238l1 -50q0 -114 -19.5 -188.5t-77.5 -123.5q-21 -19 -46 -33z" />
    <glyph glyph-name="uni1EDB" unicode="&#x1edb;" 
d="M582 961q0 102 -11 128.5t-47 26.5t-48 -26.5t-12 -128.5v-599q0 -94 12 -122.5t47 -28.5q36 0 47.5 26t11.5 112v612zM834 1645l-252 -208h-156l135 208h273zM910 1184q40 -55 57 -113q19 -69 19 -210v-325q0 -179 -18 -262.5t-77 -156t-151.5 -107t-212.5 -34.5
q-134 0 -227 29.5t-144.5 89t-73.5 144t-22 253.5v340q0 185 40 289t144 167t266 63q136 0 234 -40q42 -18 77 -41q53 33 61 87h-68v222h238l1 -50q0 -114 -19.5 -188.5t-77.5 -123.5q-21 -19 -46 -33z" />
    <glyph glyph-name="uni1EDF" unicode="&#x1edf;" 
d="M582 961q0 102 -11 128.5t-47 26.5t-48 -26.5t-12 -128.5v-599q0 -94 12 -122.5t47 -28.5q36 0 47.5 26t11.5 112v612zM479 1405v32q0 34 74 114q17 16 26.5 35t9.5 39q0 26 -8 36q-5 9 -31 11q-53 0 -53 -55v-39h-110v47q0 53 41 96q47 46 127 46q69 0 113 -34t44 -102
q0 -61 -66 -116q-68 -55 -68 -110h-99zM910 1184q40 -55 57 -113q19 -69 19 -210v-325q0 -179 -18 -262.5t-77 -156t-151.5 -107t-212.5 -34.5q-134 0 -227 29.5t-144.5 89t-73.5 144t-22 253.5v340q0 185 40 289t144 167t266 63q136 0 234 -40q42 -18 77 -41q53 33 61 87
h-68v222h238l1 -50q0 -114 -19.5 -188.5t-77.5 -123.5q-21 -19 -46 -33z" />
    <glyph glyph-name="uni1EE1" unicode="&#x1ee1;" 
d="M582 961q0 102 -11 128.5t-47 26.5t-48 -26.5t-12 -128.5v-599q0 -94 12 -122.5t47 -28.5q36 0 47.5 26t11.5 112v612zM732 1619l53 -119q-16 -18 -37 -38q-11 -10 -33 -27q-39 -26 -84 -26l-38 3l-37 11l-43 19l-73 29l-28 5l-28 1q-33 0 -61 -23q-16 -14 -35 -49
l-41 127q10 16 21 30q11 12 29 28q41 26 91 26q12 0 26 -1q15 -3 36 -9l35 -9l30 -13l63 -25q28 -11 53 -11q36 0 68 33zM910 1184q40 -55 57 -113q19 -69 19 -210v-325q0 -179 -18 -262.5t-77 -156t-151.5 -107t-212.5 -34.5q-134 0 -227 29.5t-144.5 89t-73.5 144
t-22 253.5v340q0 185 40 289t144 167t266 63q136 0 234 -40q42 -18 77 -41q53 33 61 87h-68v222h238l1 -50q0 -114 -19.5 -188.5t-77.5 -123.5q-21 -19 -46 -33z" />
    <glyph glyph-name="uni1EE3" unicode="&#x1ee3;" 
d="M582 961q0 102 -11 128.5t-47 26.5t-48 -26.5t-12 -128.5v-599q0 -94 12 -122.5t47 -28.5q36 0 47.5 26t11.5 112v612zM635 -123v-214h-224v214h224zM910 1184q40 -55 57 -113q19 -69 19 -210v-325q0 -179 -18 -262.5t-77 -156t-151.5 -107t-212.5 -34.5
q-134 0 -227 29.5t-144.5 89t-73.5 144t-22 253.5v340q0 185 40 289t144 167t266 63q136 0 234 -40q42 -18 77 -41q53 33 61 87h-68v222h238l1 -50q0 -114 -19.5 -188.5t-77.5 -123.5q-21 -19 -46 -33z" />
    <glyph glyph-name="ygrave" unicode="&#x1ef3;" horiz-adv-x="918" 
d="M918 1327l-116 -960q-27 -228 -45.5 -311t-61.5 -137t-119.5 -79.5t-244.5 -25.5h-245v212q94 0 121 9.5t27 42.5q0 16 -25 139l-221 1110h367l132 -895l64 895h367zM413 1645l135 -208h-156l-252 208h273z" />
    <glyph glyph-name="glyph234" unicode="&#xfd;" horiz-adv-x="918" 
d="M918 1327l-116 -960q-27 -228 -45.5 -311t-61.5 -137t-119.5 -79.5t-244.5 -25.5h-245v212q94 0 121 9.5t27 42.5q0 16 -25 139l-221 1110h367l132 -895l64 895h367zM776 1645l-252 -208h-156l135 208h273z" />
    <glyph glyph-name="uni1EF7" unicode="&#x1ef7;" horiz-adv-x="918" 
d="M918 1327l-116 -960q-27 -228 -45.5 -311t-61.5 -137t-119.5 -79.5t-244.5 -25.5h-245v212q94 0 121 9.5t27 42.5q0 16 -25 139l-221 1110h367l132 -895l64 895h367zM411 1405v32q0 34 74 114q17 16 26.5 35t9.5 39q0 26 -8 36q-5 9 -31 11q-53 0 -53 -55v-39h-110v47
q0 53 41 96q47 46 127 46q69 0 113 -34t44 -102q0 -61 -66 -116q-68 -55 -68 -110h-99z" />
    <glyph glyph-name="uni1EF9" unicode="&#x1ef9;" horiz-adv-x="918" 
d="M918 1327l-116 -960q-27 -228 -45.5 -311t-61.5 -137t-119.5 -79.5t-244.5 -25.5h-245v212q94 0 121 9.5t27 42.5q0 16 -25 139l-221 1110h367l132 -895l64 895h367zM688 1619l54 -119q-16 -18 -38 -38q-11 -10 -32 -27q-39 -26 -85 -26l-37 3l-37 11l-43 19l-73 29
l-28 5l-29 1q-32 0 -60 -23q-17 -14 -36 -49l-40 127q9 16 20 30q11 12 30 28q40 26 91 26q11 0 25 -1q15 -3 37 -9l34 -9l30 -13l64 -25q28 -11 52 -11q36 0 69 33z" />
    <glyph glyph-name="uni1EF5" unicode="&#x1ef5;" horiz-adv-x="918" 
d="M918 1327l-116 -960q-27 -228 -45.5 -311t-61.5 -137t-119.5 -79.5t-244.5 -25.5h-245v212q94 0 121 9.5t27 42.5q0 16 -25 139l-221 1110h367l132 -895l64 895h367zM566 -242v-214h-224v214h224z" />
    <glyph glyph-name="divide" unicode="&#xf7;" horiz-adv-x="1706" 
 />
    <glyph glyph-name="ugrave" horiz-adv-x="582" 
 />
    <glyph glyph-name="uacute" horiz-adv-x="580" 
 />
    <glyph glyph-name="yacute" horiz-adv-x="629" 
 />
    <glyph glyph-name="Ccaron" unicode="&#x10c;" horiz-adv-x="1274" 
 />
    <glyph glyph-name="ccaron" unicode="&#x10d;" horiz-adv-x="922" 
 />
    <glyph glyph-name="Dslash" unicode="&#x110;" horiz-adv-x="1144" 
d="M96 810h-82v172h82v637h315q305 0 412.5 -28t163.5 -92t70 -142.5t14 -308.5v-567q0 -218 -20.5 -291.5t-71.5 -115t-126 -58t-226 -16.5h-531v810zM517 810v-533q91 0 112 36.5t21 198.5v629q0 110 -7 141t-31.5 45.5t-94.5 14.5v-360h66v-172h-66z" />
    <glyph glyph-name="dcroat" unicode="&#x111;" horiz-adv-x="1064" 
d="M991 1571h70v-172h-70v-1399h-404v96q-117 -120 -256 -120q-94 0 -163 49.5t-88.5 114.5t-19.5 212v621q0 153 19.5 217t89.5 112.5t167 48.5q149 0 251 -108v156h-251v172h251v48h404v-48zM587 993q0 73 -12.5 98t-49.5 25q-36 0 -48.5 -22.5t-12.5 -100.5v-650
q0 -81 12 -106.5t46 -25.5q39 0 52 28.5t13 139.5v614z" />
    <glyph glyph-name="quoteleft" unicode="&#x2018;" horiz-adv-x="344" 
d="M36 1095v145q0 114 27.5 187t94 124t149.5 68v-116q-59 -34 -67 -91h67v-317h-271z" />
    <glyph glyph-name="quoteright" unicode="&#x2019;" horiz-adv-x="344" 
d="M307 1619v-145q0 -113 -27 -186.5t-93.5 -124t-150.5 -68.5v117q60 33 68 90h-68v317h271z" />
    <glyph glyph-name="quotedblleft" unicode="&#x201c;" horiz-adv-x="706" 
d="M398 1095v145q0 114 27.5 187t93.5 124t150 68v-116q-59 -34 -67 -91h67v-317h-271zM36 1095v145q0 114 27.5 187t94 124t149.5 68v-116q-59 -34 -67 -91h67v-317h-271z" />
    <glyph glyph-name="quotedblright" unicode="&#x201d;" horiz-adv-x="706" 
d="M669 1619v-145q0 -113 -27 -186.5t-93.5 -124t-150.5 -68.5v117q59 33 67 90h-67v317h271zM307 1619v-145q0 -113 -27 -186.5t-93.5 -124t-150.5 -68.5v117q60 33 68 90h-68v317h271z" />
    <glyph glyph-name="ellipsis" unicode="&#x2026;" horiz-adv-x="1133" 
d="M341 330v-330h-305v330h305zM1097 330v-330h-305v330h305zM719 330v-330h-305v330h305z" />
    </font>
</defs>
</svg>
